<?xml version="1.0" encoding="UTF-8"?>
<!-- Generator: visioncortex VTracer 0.6.4 -->
<svg version="1.1" xmlns="http://www.w3.org/2000/svg" width="1254" height="1254">
<path d="M0 0 C2.77 -0.03 5.54 -0.05 8.31 -0.06 C9.1 -0.07 9.88 -0.08 10.69 -0.09 C11.45 -0.09 12.21 -0.09 12.99 -0.1 C13.68 -0.1 14.38 -0.11 15.1 -0.11 C17 0 17 0 20 1 C20 1.66 20 2.32 20 3 C22.64 3 25.28 3 28 3 C28 3.66 28 4.32 28 5 C29.98 5 31.96 5 34 5 C34.33 5.99 34.66 6.98 35 8 C36.65 8 38.3 8 40 8 C40 8.66 40 9.32 40 10 C42.47 10.5 42.47 10.5 45 11 C45 11.66 45 12.32 45 13 C45.66 13 46.32 13 47 13 C47 13.66 47 14.32 47 15 C48.65 15 50.3 15 52 15 C52 15.99 52 16.98 52 18 C53.65 18 55.3 18 57 18 C57 18.66 57 19.32 57 20 C57.58 20.12 58.15 20.25 58.75 20.38 C61.02 21.01 62.93 21.89 65 23 C65 23.66 65 24.32 65 25 C66.32 25 67.64 25 69 25 C69 25.66 69 26.32 69 27 C70.65 27 72.3 27 74 27 C74 27.99 74 28.98 74 30 C75.65 30 77.3 30 79 30 C79 30.66 79 31.32 79 32 C79.99 32 80.98 32 82 32 C82 32.99 82 33.98 82 35 C83.65 35 85.3 35 87 35 C87 35.66 87 36.32 87 37 C88.32 37 89.64 37 91 37 C91 37.99 91 38.98 91 40 C92.65 40 94.3 40 96 40 C96 40.66 96 41.32 96 42 C96.76 42.12 97.53 42.25 98.31 42.38 C101 43 101 43 104 45 C104 45.66 104 46.32 104 47 C105.65 47 107.3 47 109 47 C109 47.66 109 48.32 109 49 C110.32 49 111.64 49 113 49 C113.33 49.66 113.66 50.32 114 51 C116.31 52.05 118.64 53.06 121 54 C121 54.99 121 55.98 121 57 C122.65 57 124.3 57 126 57 C126 57.66 126 58.32 126 59 C128.47 59.5 128.47 59.5 131 60 C131 60.66 131 61.32 131 62 C132.32 62 133.64 62 135 62 C135 62.66 135 63.32 135 64 C135.87 64.19 135.87 64.19 136.75 64.38 C139.02 65.01 140.93 65.89 143 67 C143 67.66 143 68.32 143 69 C144.65 69 146.3 69 148 69 C148 69.66 148 70.32 148 71 C150.47 71.5 150.47 71.5 153 72 C153 72.66 153 73.32 153 74 C154.32 74 155.64 74 157 74 C157 74.66 157 75.32 157 76 C157.99 76 158.98 76 160 76 C160 76.99 160 77.98 160 79 C161.65 79 163.3 79 165 79 C165 79.66 165 80.32 165 81 C166.65 81 168.3 81 170 81 C170 81.99 170 82.98 170 84 C170.74 84.12 171.49 84.25 172.25 84.38 C174.8 84.95 176.73 85.74 179 87 C179 87.66 179 88.32 179 89 C179.58 89.14 180.15 89.29 180.75 89.44 C183.88 90.22 183.88 90.22 187 91 C187 91.66 187 92.32 187 93 C189.47 93.5 189.47 93.5 192 94 C192 94.66 192 95.32 192 96 C193.32 96 194.64 96 196 96 C196 96.66 196 97.32 196 98 C198.47 98.5 198.47 98.5 201 99 C201 99.66 201 100.32 201 101 C201.99 101 202.98 101 204 101 C204 101.66 204 102.32 204 103 C205.65 103 207.3 103 209 103 C209 103.99 209 104.98 209 106 C210.65 106 212.3 106 214 106 C214 106.66 214 107.32 214 108 C215.32 108.33 216.64 108.66 218 109 C218 109.66 218 110.32 218 111 C218.99 111 219.98 111 221 111 C221 111.66 221 112.32 221 113 C222.65 113 224.3 113 226 113 C226 113.66 226 114.32 226 115 C228.47 115.5 228.47 115.5 231 116 C231 116.66 231 117.32 231 118 C232.65 118 234.3 118 236 118 C236 118.66 236 119.32 236 120 C236.66 120 237.32 120 238 120 C238 120.99 238 121.98 238 123 C239.65 123 241.3 123 243 123 C243 123.66 243 124.32 243 125 C244.65 125 246.3 125 248 125 C248 125.99 248 126.98 248 128 C249.65 128 251.3 128 253 128 C253 128.66 253 129.32 253 130 C253.9 130.19 253.9 130.19 254.81 130.38 C257 131 257 131 260 133 C260 133.66 260 134.32 260 135 C261.65 135 263.3 135 265 135 C265 135.99 265 136.98 265 138 C266.65 138 268.3 138 270 138 C270 138.66 270 139.32 270 140 C270.66 140.06 271.32 140.12 272 140.19 C275.54 141.15 278.02 142.79 281.04 144.84 C283.03 146.02 284.74 146.56 287 147 C287 147.99 287 148.98 287 150 C288.65 150 290.3 150 292 150 C292 150.66 292 151.32 292 152 C293.65 152.33 295.3 152.66 297 153 C297 153.66 297 154.32 297 155 C297.99 155 298.98 155 300 155 C300 155.66 300 156.32 300 157 C301.65 157.33 303.3 157.66 305 158 C305 158.66 305 159.32 305 160 C306.32 160 307.64 160 309 160 C309 160.66 309 161.32 309 162 C310.65 162 312.3 162 314 162 C314 162.66 314 163.32 314 164 C315.65 164.33 317.3 164.66 319 165 C319 165.66 319 166.32 319 167 C319.99 167 320.98 167 322 167 C322 167.66 322 168.32 322 169 C323.65 169.33 325.3 169.66 327 170 C327 170.66 327 171.32 327 172 C328.32 172 329.64 172 331 172 C331 172.66 331 173.32 331 174 C331.99 174 332.98 174 334 174 C334.33 174.66 334.66 175.32 335 176 C337.02 176.65 337.02 176.65 339 177 C339 177.66 339 178.32 339 179 C340.65 179 342.3 179 344 179 C344 179.99 344 180.98 344 182 C344.74 182.12 345.49 182.25 346.25 182.38 C348.8 182.95 350.73 183.74 353 185 C353 185.66 353 186.32 353 187 C354.65 187 356.3 187 358 187 C358 187.66 358 188.32 358 189 C358.99 189 359.98 189 361 189 C361 189.66 361 190.32 361 191 C362.65 191.33 364.3 191.66 366 192 C366 192.66 366 193.32 366 194 C366.74 194.12 367.49 194.25 368.25 194.38 C370.8 194.95 372.73 195.74 375 197 C375 197.66 375 198.32 375 199 C375.99 199 376.98 199 378 199 C378 199.66 378 200.32 378 201 C379.65 201 381.3 201 383 201 C383 201.99 383 202.98 383 204 C384.65 204 386.3 204 388 204 C388 204.66 388 205.32 388 206 C389.65 206.33 391.3 206.66 393 207 C393 207.66 393 208.32 393 209 C393.66 209 394.32 209 395 209 C395 209.66 395 210.32 395 211 C396.65 211 398.3 211 400 211 C400 211.66 400 212.32 400 213 C401.65 213.33 403.3 213.66 405 214 C405 214.66 405 215.32 405 216 C406.65 216 408.3 216 410 216 C410 216.66 410 217.32 410 218 C411.65 218.33 413.3 218.66 415 219 C415 219.66 415 220.32 415 221 C415.66 221 416.32 221 417 221 C417 221.66 417 222.32 417 223 C418.65 223 420.3 223 422 223 C422 223.99 422 224.98 422 226 C423.65 226 425.3 226 427 226 C427 226.66 427 227.32 427 228 C427.66 228 428.32 228 429 228 C429 228.99 429 229.98 429 231 C430.65 231 432.3 231 434 231 C434 231.66 434 232.32 434 233 C435.65 233 437.3 233 439 233 C439 233.66 439 234.32 439 235 C440.65 235.33 442.3 235.66 444 236 C444 236.66 444 237.32 444 238 C444.68 238.08 445.36 238.16 446.06 238.25 C449.87 239.22 452.64 240.96 456 243 C456 243.66 456 244.32 456 245 C457.65 245 459.3 245 461 245 C461 245.99 461 246.98 461 248 C461.87 248.19 461.87 248.19 462.75 248.38 C465.02 249.01 466.93 249.89 469 251 C469 251.66 469 252.32 469 253 C469.74 253.14 470.49 253.29 471.25 253.44 C473.52 253.9 475.76 254.42 478 255 C478 255.99 478 256.98 478 258 C478.76 258.14 479.53 258.29 480.31 258.44 C483 259 483 259 486 260 C486 260.66 486 261.32 486 262 C486.66 262 487.32 262 488 262 C488 262.99 488 263.98 488 265 C488.58 265.08 489.15 265.17 489.75 265.25 C492.65 266.22 494.04 267.69 496 270 C496 270.66 496 271.32 496 272 C496.66 272 497.32 272 498 272 C498 272.99 498 273.98 498 275 C498.66 275 499.32 275 500 275 C500.33 276.65 500.66 278.3 501 280 C501.66 280 502.32 280 503 280 C503 281.65 503 283.3 503 285 C503.66 285 504.32 285 505 285 C505 287.97 505 290.94 505 294 C505.99 294.33 506.98 294.66 508 295 C508 468.25 508 641.5 508 820 C507.01 820.33 506.02 820.66 505 821 C505 823.31 505 825.62 505 828 C504.34 828 503.68 828 503 828 C502.88 829.09 502.75 830.19 502.62 831.31 C502 835 502 835 500 838 C499.34 838 498.68 838 498 838 C498 839.65 498 841.3 498 843 C497.34 843 496.68 843 496 843 C496 843.66 496 844.32 496 845 C495.01 845 494.02 845 493 845 C493 845.99 493 846.98 493 848 C492.34 848 491.68 848 491 848 C491 848.66 491 849.32 491 850 C490.01 850 489.02 850 488 850 C488 850.99 488 851.98 488 853 C487.34 853 486.68 853 486 853 C486 853.66 486 854.32 486 855 C484.35 855 482.7 855 481 855 C480.67 855.99 480.34 856.98 480 858 C473.94 862 473.94 862 469 862 C469 862.99 469 863.98 469 865 C465.91 866.76 464.77 867 461 867 C460.67 867.99 460.34 868.98 460 870 C458.68 870 457.36 870 456 870 C456 870.66 456 871.32 456 872 C455.13 872.12 455.13 872.12 454.25 872.25 C451.82 872.87 451.82 872.87 450 875.06 C448 877 448 877 444 877 C444 877.99 444 878.98 444 880 C442.35 880 440.7 880 439 880 C439 880.66 439 881.32 439 882 C438.03 882.45 437.06 882.91 436.06 883.38 C432.93 884.66 432.93 884.66 432 887 C430.35 887 428.7 887 427 887 C427 887.66 427 888.32 427 889 C426.01 889 425.02 889 424 889 C424 889.99 424 890.98 424 892 C422.68 892 421.36 892 420 892 C420 892.66 420 893.32 420 894 C418.35 894 416.7 894 415 894 C415 894.99 415 895.98 415 897 C413.35 897 411.7 897 410 897 C410 897.66 410 898.32 410 899 C409.01 899 408.02 899 407 899 C407 899.66 407 900.32 407 901 C405.35 901.33 403.7 901.66 402 902 C402 902.66 402 903.32 402 904 C397.62 907 397.62 907 395 907 C395 907.66 395 908.32 395 909 C393.35 909 391.7 909 390 909 C390 909.66 390 910.32 390 911 C388.35 911 386.7 911 385 911 C385 911.99 385 912.98 385 914 C384.34 914 383.68 914 383 914 C383 914.66 383 915.32 383 916 C381.35 916 379.7 916 378 916 C378 916.99 378 917.98 378 919 C376.89 919.45 375.77 919.91 374.62 920.38 C371.04 921.72 371.04 921.72 369 924 C368.01 924 367.02 924 366 924 C366 924.66 366 925.32 366 926 C364.35 926 362.7 926 361 926 C360.67 926.99 360.34 927.98 360 929 C357.4 930.65 356.14 931 353 931 C353 931.66 353 932.32 353 933 C351.68 933 350.36 933 349 933 C349 933.99 349 934.98 349 936 C348.01 936 347.02 936 346 936 C346 936.66 346 937.32 346 938 C344.35 938 342.7 938 341 938 C341 938.99 341 939.98 341 941 C339.35 941 337.7 941 336 941 C336 941.66 336 942.32 336 943 C335.04 943.19 335.04 943.19 334.06 943.38 C333.38 943.58 332.7 943.79 332 944 C331.67 944.66 331.34 945.32 331 946 C330.34 946 329.68 946 329 946 C329 946.66 329 947.32 329 948 C327.35 948 325.7 948 324 948 C324 948.99 324 949.98 324 951 C322.35 951 320.7 951 319 951 C319 951.66 319 952.32 319 953 C314.62 956 314.62 956 312 956 C312 956.66 312 957.32 312 958 C310.35 958 308.7 958 307 958 C307 958.66 307 959.32 307 960 C306.01 960 305.02 960 304 960 C304 960.66 304 961.32 304 962 C302.68 962.33 301.36 962.66 300 963 C300 963.66 300 964.32 300 965 C298.35 965 296.7 965 295 965 C295 965.99 295 966.98 295 968 C292.09 969.26 290.2 970 287 970 C286.67 970.99 286.34 971.98 286 973 C284.68 973 283.36 973 282 973 C282 973.66 282 974.32 282 975 C277.62 978 277.62 978 275 978 C275 978.66 275 979.32 275 980 C273.35 980 271.7 980 270 980 C270 980.66 270 981.32 270 982 C268.35 982 266.7 982 265 982 C265 982.99 265 983.98 265 985 C262 987 262 987 258 987 C258 987.99 258 988.98 258 990 C256.35 990 254.7 990 253 990 C253 990.66 253 991.32 253 992 C252.01 992 251.02 992 250 992 C250 992.66 250 993.32 250 994 C246.63 996.43 245.27 997 241 997 C240.67 997.99 240.34 998.98 240 1000 C238.68 1000 237.36 1000 236 1000 C236 1000.66 236 1001.32 236 1002 C235.01 1002 234.02 1002 233 1002 C233 1002.66 233 1003.32 233 1004 C232.01 1004.33 231.02 1004.66 230 1005 C229.67 1005.66 229.34 1006.32 229 1007 C225.97 1008.88 224.75 1009 221 1009 C221 1009.99 221 1010.98 221 1012 C219.35 1012 217.7 1012 216 1012 C216 1012.66 216 1013.32 216 1014 C214.35 1014 212.7 1014 211 1014 C211 1014.99 211 1015.98 211 1017 C210.34 1017 209.68 1017 209 1017 C209 1017.66 209 1018.32 209 1019 C207.35 1019 205.7 1019 204 1019 C204 1019.99 204 1020.98 204 1022 C202.35 1022 200.7 1022 199 1022 C199 1022.66 199 1023.32 199 1024 C197.35 1024 195.7 1024 194 1024 C194 1024.99 194 1025.98 194 1027 C191 1029 191 1029 187 1029 C187 1029.66 187 1030.32 187 1031 C185.35 1031 183.7 1031 182 1031 C182 1031.99 182 1032.98 182 1034 C179 1036 179 1036 175 1036 C175 1036.99 175 1037.98 175 1039 C173.35 1039 171.7 1039 170 1039 C170 1039.66 170 1040.32 170 1041 C167.09 1043.04 165.6 1044 162 1044 C162 1044.66 162 1045.32 162 1046 C160.68 1046 159.36 1046 158 1046 C157.67 1046.99 157.34 1047.98 157 1049 C154.4 1050.65 153.14 1051 150 1051 C150 1051.66 150 1052.32 150 1053 C149.04 1053.19 149.04 1053.19 148.06 1053.38 C147.04 1053.68 147.04 1053.68 146 1054 C145.67 1054.66 145.34 1055.32 145 1056 C143.35 1056 141.7 1056 140 1056 C140 1056.66 140 1057.32 140 1058 C137.44 1060.3 136.52 1061 133 1061 C133 1061.66 133 1062.32 133 1063 C131.35 1063 129.7 1063 128 1063 C128 1063.99 128 1064.98 128 1066 C126.35 1066 124.7 1066 123 1066 C123 1066.66 123 1067.32 123 1068 C122.01 1068 121.02 1068 120 1068 C120 1068.66 120 1069.32 120 1070 C118.68 1070.33 117.36 1070.66 116 1071 C116 1071.66 116 1072.32 116 1073 C114.35 1073 112.7 1073 111 1073 C110.67 1073.99 110.34 1074.98 110 1076 C109.34 1076 108.68 1076 108 1076 C108 1076.66 108 1077.32 108 1078 C106.68 1078 105.36 1078 104 1078 C104 1078.66 104 1079.32 104 1080 C102.35 1080 100.7 1080 99 1080 C99 1080.99 99 1081.98 99 1083 C97.35 1083 95.7 1083 94 1083 C94 1083.66 94 1084.32 94 1085 C93.01 1085 92.02 1085 91 1085 C91 1085.99 91 1086.98 91 1088 C89.68 1088 88.36 1088 87 1088 C87 1088.66 87 1089.32 87 1090 C85.35 1090 83.7 1090 82 1090 C81.67 1090.99 81.34 1091.98 81 1093 C78.4 1094.65 77.14 1095 74 1095 C74 1095.66 74 1096.32 74 1097 C72.35 1097.33 70.7 1097.66 69 1098 C69 1098.66 69 1099.32 69 1100 C67.68 1100 66.36 1100 65 1100 C65 1100.66 65 1101.32 65 1102 C64.01 1102 63.02 1102 62 1102 C61.67 1102.99 61.34 1103.98 61 1105 C59.68 1105 58.36 1105 57 1105 C57 1105.66 57 1106.32 57 1107 C55.35 1107 53.7 1107 52 1107 C52 1107.99 52 1108.98 52 1110 C50.35 1110 48.7 1110 47 1110 C47 1110.66 47 1111.32 47 1112 C46.34 1112 45.68 1112 45 1112 C44.67 1112.99 44.34 1113.98 44 1115 C42.68 1115 41.36 1115 40 1115 C40 1115.66 40 1116.32 40 1117 C39.01 1117 38.02 1117 37 1117 C37 1117.66 37 1118.32 37 1119 C29.71 1122.43 29.71 1122.43 25 1122 C25 1122.66 25 1123.32 25 1124 C21.53 1125.16 18.64 1125.07 15 1125 C15 1125.66 15 1126.32 15 1127 C10.38 1127 5.76 1127 1 1127 C1 1126.34 1 1125.68 1 1125 C0.07 1125.04 -0.86 1125.08 -1.81 1125.12 C-5 1125 -5 1125 -8 1123 C-9.99 1122.61 -11.99 1122.27 -14 1122 C-14 1121.34 -14 1120.68 -14 1120 C-15.65 1119.67 -17.3 1119.34 -19 1119 C-19 1118.34 -19 1117.68 -19 1117 C-20.65 1117 -22.3 1117 -24 1117 C-24 1116.34 -24 1115.68 -24 1115 C-25.32 1115 -26.64 1115 -28 1115 C-28 1114.01 -28 1113.02 -28 1112 C-28.99 1112 -29.98 1112 -31 1112 C-31 1111.34 -31 1110.68 -31 1110 C-32.65 1110 -34.3 1110 -36 1110 C-36 1109.01 -36 1108.02 -36 1107 C-37.65 1107 -39.3 1107 -41 1107 C-41 1106.34 -41 1105.68 -41 1105 C-42.32 1105 -43.64 1105 -45 1105 C-46.35 1103.69 -47.69 1102.35 -49 1101 C-51.14 1100.21 -51.14 1100.21 -53 1100 C-53 1099.34 -53 1098.68 -53 1098 C-54.65 1097.67 -56.3 1097.34 -58 1097 C-58 1096.34 -58 1095.68 -58 1095 C-58.6 1094.86 -59.2 1094.71 -59.81 1094.56 C-61.56 1094.11 -63.29 1093.57 -65 1093 C-65 1092.01 -65 1091.02 -65 1090 C-66.65 1090 -68.3 1090 -70 1090 C-70 1089.34 -70 1088.68 -70 1088 C-71.65 1087.67 -73.3 1087.34 -75 1087 C-75 1086.34 -75 1085.68 -75 1085 C-75.66 1085 -76.32 1085 -77 1085 C-77 1084.34 -77 1083.68 -77 1083 C-78.65 1083 -80.3 1083 -82 1083 C-82 1082.01 -82 1081.02 -82 1080 C-82.76 1079.86 -83.53 1079.71 -84.31 1079.56 C-87 1079 -87 1079 -90 1078 C-90 1077.34 -90 1076.68 -90 1076 C-91.65 1075.67 -93.3 1075.34 -95 1075 C-95 1074.34 -95 1073.68 -95 1073 C-96.32 1073 -97.64 1073 -99 1073 C-99 1072.34 -99 1071.68 -99 1071 C-100.65 1070.67 -102.3 1070.34 -104 1070 C-104 1069.34 -104 1068.68 -104 1068 C-104.99 1068 -105.98 1068 -107 1068 C-107 1067.34 -107 1066.68 -107 1066 C-108.65 1066 -110.3 1066 -112 1066 C-112 1065.01 -112 1064.02 -112 1063 C-113.65 1063 -115.3 1063 -117 1063 C-117 1062.34 -117 1061.68 -117 1061 C-118.32 1060.67 -119.64 1060.34 -121 1060 C-121 1059.34 -121 1058.68 -121 1058 C-121.99 1058 -122.98 1058 -124 1058 C-124 1057.34 -124 1056.68 -124 1056 C-124.76 1055.9 -125.53 1055.79 -126.31 1055.69 C-129.27 1054.93 -129.96 1054.13 -132 1052 C-134.1 1051.29 -134.1 1051.29 -136 1051 C-136 1050.34 -136 1049.68 -136 1049 C-137.65 1048.67 -139.3 1048.34 -141 1048 C-141 1047.34 -141 1046.68 -141 1046 C-142.65 1046 -144.3 1046 -146 1046 C-146 1045.34 -146 1044.68 -146 1044 C-146.66 1044 -147.32 1044 -148 1044 C-148.33 1043.34 -148.66 1042.68 -149 1042 C-151.02 1041.35 -151.02 1041.35 -153 1041 C-153 1040.34 -153 1039.68 -153 1039 C-154.65 1038.67 -156.3 1038.34 -158 1038 C-158 1037.34 -158 1036.68 -158 1036 C-158.76 1035.86 -159.53 1035.71 -160.31 1035.56 C-163 1035 -163 1035 -166 1034 C-166 1033.01 -166 1032.02 -166 1031 C-166.78 1030.86 -167.57 1030.71 -168.38 1030.56 C-171 1030 -171 1030 -173 1029 C-173 1028.34 -173 1027.68 -173 1027 C-174.65 1026.67 -176.3 1026.34 -178 1026 C-178 1025.34 -178 1024.68 -178 1024 C-179.65 1024 -181.3 1024 -183 1024 C-183 1023.34 -183 1022.68 -183 1022 C-183.78 1021.69 -184.57 1021.38 -185.38 1021.06 C-188 1020 -188 1020 -190 1019 C-190 1018.34 -190 1017.68 -190 1017 C-191.65 1017 -193.3 1017 -195 1017 C-195 1016.01 -195 1015.02 -195 1014 C-196.32 1014 -197.64 1014 -199 1014 C-199 1013.34 -199 1012.68 -199 1012 C-199.99 1012 -200.98 1012 -202 1012 C-202 1011.01 -202 1010.02 -202 1009 C-203.65 1009 -205.3 1009 -207 1009 C-207 1008.34 -207 1007.68 -207 1007 C-208.65 1007 -210.3 1007 -212 1007 C-212 1006.34 -212 1005.68 -212 1005 C-213.65 1004.67 -215.3 1004.34 -217 1004 C-217 1003.34 -217 1002.68 -217 1002 C-217.97 1001.73 -218.94 1001.46 -219.94 1001.19 C-221.45 1000.6 -221.45 1000.6 -223 1000 C-223.33 999.01 -223.66 998.02 -224 997 C-225.65 997 -227.3 997 -229 997 C-229 996.34 -229 995.68 -229 995 C-229.58 994.88 -230.15 994.75 -230.75 994.62 C-233.02 993.99 -234.93 993.11 -237 992 C-237 991.34 -237 990.68 -237 990 C-238.32 990 -239.64 990 -241 990 C-241 989.01 -241 988.02 -241 987 C-241.99 987 -242.98 987 -244 987 C-244 986.34 -244 985.68 -244 985 C-245.65 985 -247.3 985 -249 985 C-249 984.01 -249 983.02 -249 982 C-249.66 982 -250.32 982 -251 982 C-251 981.34 -251 980.68 -251 980 C-252.65 980 -254.3 980 -256 980 C-256 979.34 -256 978.68 -256 978 C-257.65 977.67 -259.3 977.34 -261 977 C-261 976.34 -261 975.68 -261 975 C-262.65 975 -264.3 975 -266 975 C-266 974.34 -266 973.68 -266 973 C-266.78 972.69 -267.57 972.38 -268.38 972.06 C-271 971 -271 971 -273 970 C-273 969.34 -273 968.68 -273 968 C-274.65 968 -276.3 968 -278 968 C-278 967.01 -278 966.02 -278 965 C-279.65 965 -281.3 965 -283 965 C-283 964.34 -283 963.68 -283 963 C-283.99 963 -284.98 963 -286 963 C-286 962.01 -286 961.02 -286 960 C-287.02 959.88 -287.02 959.88 -288.06 959.75 C-291.87 958.78 -294.64 957.04 -298 955 C-298 954.34 -298 953.68 -298 953 C-299.65 953 -301.3 953 -303 953 C-303 952.34 -303 951.68 -303 951 C-303.6 950.88 -304.2 950.75 -304.81 950.62 C-307 950 -307 950 -310 948 C-310 947.34 -310 946.68 -310 946 C-311.65 946 -313.3 946 -315 946 C-315 945.01 -315 944.02 -315 943 C-316.65 943 -318.3 943 -320 943 C-320 942.34 -320 941.68 -320 941 C-320.78 940.69 -321.57 940.38 -322.38 940.06 C-325 939 -325 939 -327 938 C-327 937.34 -327 936.68 -327 936 C-328.65 936 -330.3 936 -332 936 C-332 935.01 -332 934.02 -332 933 C-333.65 933 -335.3 933 -337 933 C-337 932.34 -337 931.68 -337 931 C-337.97 930.73 -338.94 930.46 -339.94 930.19 C-341.45 929.6 -341.45 929.6 -343 929 C-343.33 928.01 -343.66 927.02 -344 926 C-345.65 926 -347.3 926 -349 926 C-349 925.34 -349 924.68 -349 924 C-350.65 923.67 -352.3 923.34 -354 923 C-354 922.34 -354 921.68 -354 921 C-354.99 921 -355.98 921 -357 921 C-357 920.34 -357 919.68 -357 919 C-358.32 919 -359.64 919 -361 919 C-362.75 917.63 -362.75 917.63 -364 916 C-364 915.34 -364 914.68 -364 914 C-365.65 914 -367.3 914 -369 914 C-369 913.01 -369 912.02 -369 911 C-369.68 910.9 -370.36 910.79 -371.06 910.69 C-374.63 909.85 -377.66 908.51 -381 907 C-381 906.01 -381 905.02 -381 904 C-382.65 904 -384.3 904 -386 904 C-386 903.34 -386 902.68 -386 902 C-388.33 900.79 -390.5 899.83 -393 899 C-393 898.34 -393 897.68 -393 897 C-394.65 897 -396.3 897 -398 897 C-398 896.01 -398 895.02 -398 894 C-398.58 893.86 -399.15 893.71 -399.75 893.56 C-401.83 893.04 -403.92 892.52 -406 892 C-406 891.01 -406 890.02 -406 889 C-407.32 889 -408.64 889 -410 889 C-410 888.34 -410 887.68 -410 887 C-410.99 887 -411.98 887 -413 887 C-413 886.34 -413 885.68 -413 885 C-414.65 884.67 -416.3 884.34 -418 884 C-418 883.34 -418 882.68 -418 882 C-419.32 882 -420.64 882 -422 882 C-422 881.34 -422 880.68 -422 880 C-423.65 879.67 -425.3 879.34 -427 879 C-427 878.34 -427 877.68 -427 877 C-427.99 877 -428.98 877 -430 877 C-430 876.34 -430 875.68 -430 875 C-431.65 874.67 -433.3 874.34 -435 874 C-435 873.34 -435 872.68 -435 872 C-437.31 871.34 -439.62 870.68 -442 870 C-442 869.01 -442 868.02 -442 867 C-442.99 867 -443.98 867 -445 867 C-445 866.34 -445 865.68 -445 865 C-446.65 864.67 -448.3 864.34 -450 864 C-450 863.34 -450 862.68 -450 862 C-451.32 862 -452.64 862 -454 862 C-454 861.34 -454 860.68 -454 860 C-454.99 860 -455.98 860 -457 860 C-457 859.34 -457 858.68 -457 858 C-458.65 857.67 -460.3 857.34 -462 857 C-462 856.34 -462 855.68 -462 855 C-463.65 855 -465.3 855 -467 855 C-467 854.34 -467 853.68 -467 853 C-467.66 853 -468.32 853 -469 853 C-469 852.01 -469 851.02 -469 850 C-470.65 850 -472.3 850 -474 850 C-474 849.34 -474 848.68 -474 848 C-474.99 847.67 -475.98 847.34 -477 847 C-477 846.34 -477 845.68 -477 845 C-477.66 845 -478.32 845 -479 845 C-479 843.35 -479 841.7 -479 840 C-479.99 840 -480.98 840 -482 840 C-482 839.34 -482 838.68 -482 838 C-482.66 838 -483.32 838 -484 838 C-484 836.35 -484 834.7 -484 833 C-484.66 833 -485.32 833 -486 833 C-488.6 826.98 -489.43 822.21 -489.37 815.69 C-489.37 814.78 -489.38 813.87 -489.38 812.94 C-489.39 809.89 -489.37 806.85 -489.36 803.8 C-489.36 801.6 -489.36 799.39 -489.37 797.19 C-489.38 791.13 -489.36 785.07 -489.35 779.01 C-489.34 773.15 -489.34 767.28 -489.34 761.42 C-489.35 749.43 -489.34 737.44 -489.32 725.44 C-489.3 713.57 -489.29 701.7 -489.28 689.83 C-489.28 689.09 -489.28 688.35 -489.28 687.59 C-489.28 683.84 -489.28 680.09 -489.28 676.34 C-489.27 649.79 -489.25 623.23 -489.23 596.67 C-489.2 570.88 -489.18 545.08 -489.16 519.28 C-489.16 518.49 -489.16 517.69 -489.16 516.87 C-489.16 508.89 -489.16 500.9 -489.15 492.91 C-489.14 476.64 -489.14 460.37 -489.13 444.1 C-489.13 443.36 -489.13 442.61 -489.13 441.84 C-489.1 391.89 -489.05 341.95 -489 292 C-488.34 292 -487.68 292 -487 292 C-486.96 291.16 -486.96 291.16 -486.92 290.31 C-486.48 284.32 -484.95 280.23 -482 275 C-481.01 275 -480.02 275 -479 275 C-479 274.01 -479 273.02 -479 272 C-478.34 272 -477.68 272 -477 272 C-476.5 270.02 -476.5 270.02 -476 268 C-475.34 268 -474.68 268 -474 268 C-474 267.01 -474 266.02 -474 265 C-473.01 265 -472.02 265 -471 265 C-471 264.34 -471 263.68 -471 263 C-469.68 262.67 -468.36 262.34 -467 262 C-467 261.34 -467 260.68 -467 260 C-463.91 258.24 -462.77 258 -459 258 C-459 257.01 -459 256.02 -459 255 C-457.68 255 -456.36 255 -455 255 C-455 254.34 -455 253.68 -455 253 C-453.35 253 -451.7 253 -450 253 C-450 252.01 -450 251.02 -450 250 C-447.09 248.74 -445.2 248 -442 248 C-442 247.01 -442 246.02 -442 245 C-440.35 245 -438.7 245 -437 245 C-437 244.34 -437 243.68 -437 243 C-435.68 243 -434.36 243 -433 243 C-432.67 242.01 -432.34 241.02 -432 240 C-430.68 240 -429.36 240 -428 240 C-428 239.34 -428 238.68 -428 238 C-427.01 238 -426.02 238 -425 238 C-425 237.34 -425 236.68 -425 236 C-423.35 235.67 -421.7 235.34 -420 235 C-420 234.34 -420 233.68 -420 233 C-418.35 233 -416.7 233 -415 233 C-415 232.34 -415 231.68 -415 231 C-413.68 231 -412.36 231 -411 231 C-410.67 230.01 -410.34 229.02 -410 228 C-408.68 228 -407.36 228 -406 228 C-406 227.34 -406 226.68 -406 226 C-403.09 223.96 -401.6 223 -398 223 C-398 222.34 -398 221.68 -398 221 C-396.35 221 -394.7 221 -393 221 C-393 220.01 -393 219.02 -393 218 C-389.63 216.5 -387.8 216 -384 216 C-383.67 215.01 -383.34 214.02 -383 213 C-380.4 211.35 -379.14 211 -376 211 C-376 210.34 -376 209.68 -376 209 C-374.35 209 -372.7 209 -371 209 C-371 208.01 -371 207.02 -371 206 C-369.35 206 -367.7 206 -366 206 C-366 205.34 -366 204.68 -366 204 C-363.44 201.7 -362.52 201 -359 201 C-359 200.34 -359 199.68 -359 199 C-357.35 199 -355.7 199 -354 199 C-354 198.01 -354 197.02 -354 196 C-352.35 196 -350.7 196 -349 196 C-349 195.34 -349 194.68 -349 194 C-347.35 194 -345.7 194 -344 194 C-344 193.01 -344 192.02 -344 191 C-341 189 -341 189 -337 189 C-337 188.34 -337 187.68 -337 187 C-335.35 187 -333.7 187 -332 187 C-332 186.01 -332 185.02 -332 184 C-330.35 184 -328.7 184 -327 184 C-327 183.34 -327 182.68 -327 182 C-325.35 182 -323.7 182 -322 182 C-322 181.01 -322 180.02 -322 179 C-319 177 -319 177 -315 177 C-315 176.01 -315 175.02 -315 174 C-313.35 174 -311.7 174 -310 174 C-310 173.34 -310 172.68 -310 172 C-302.71 167.57 -302.71 167.57 -298 167 C-298 166.34 -298 165.68 -298 165 C-296.35 164.67 -294.7 164.34 -293 164 C-293 163.34 -293 162.68 -293 162 C-291.35 162 -289.7 162 -288 162 C-288 161.34 -288 160.68 -288 160 C-286.35 160 -284.7 160 -283 160 C-283 159.01 -283 158.02 -283 157 C-282.01 157 -281.02 157 -280 157 C-280 156.34 -280 155.68 -280 155 C-278.68 155 -277.36 155 -276 155 C-275.67 154.01 -275.34 153.02 -275 152 C-273.68 152 -272.36 152 -271 152 C-271 151.34 -271 150.68 -271 150 C-269.35 150 -267.7 150 -266 150 C-266 149.01 -266 148.02 -266 147 C-265.01 147 -264.02 147 -263 147 C-263 146.34 -263 145.68 -263 145 C-261.68 145 -260.36 145 -259 145 C-259 144.34 -259 143.68 -259 143 C-257.35 142.67 -255.7 142.34 -254 142 C-254 141.34 -254 140.68 -254 140 C-252.35 140 -250.7 140 -249 140 C-249 139.34 -249 138.68 -249 138 C-248.01 138 -247.02 138 -246 138 C-245.67 137.01 -245.34 136.02 -245 135 C-243.68 135 -242.36 135 -241 135 C-241 134.34 -241 133.68 -241 133 C-239.68 133 -238.36 133 -237 133 C-236.67 132.01 -236.34 131.02 -236 130 C-234.68 130 -233.36 130 -232 130 C-232 129.34 -232 128.68 -232 128 C-230.35 128 -228.7 128 -227 128 C-227 127.01 -227 126.02 -227 125 C-223.91 123.24 -222.77 123 -219 123 C-219 122.01 -219 121.02 -219 120 C-217.68 120 -216.36 120 -215 120 C-215 119.34 -215 118.68 -215 118 C-213.35 118 -211.7 118 -210 118 C-209.67 117.01 -209.34 116.02 -209 115 C-206 113 -206 113 -202 113 C-202 112.34 -202 111.68 -202 111 C-200.35 111 -198.7 111 -197 111 C-197 110.01 -197 109.02 -197 108 C-195.68 108 -194.36 108 -193 108 C-193 107.34 -193 106.68 -193 106 C-191.35 106 -189.7 106 -188 106 C-188 105.01 -188 104.02 -188 103 C-184.91 101.24 -183.77 101 -180 101 C-180 100.01 -180 99.02 -180 98 C-178.35 98 -176.7 98 -175 98 C-175 97.34 -175 96.68 -175 96 C-173.68 96 -172.36 96 -171 96 C-170.67 95.01 -170.34 94.02 -170 93 C-167 91 -167 91 -163 91 C-163 90.34 -163 89.68 -163 89 C-161.35 89 -159.7 89 -158 89 C-158 88.01 -158 87.02 -158 86 C-156.35 86 -154.7 86 -153 86 C-153 85.34 -153 84.68 -153 84 C-152.36 83.88 -151.72 83.75 -151.06 83.62 C-150.38 83.42 -149.7 83.21 -149 83 C-148.67 82.34 -148.34 81.68 -148 81 C-146.68 81 -145.36 81 -144 81 C-144 80.34 -144 79.68 -144 79 C-143.01 79 -142.02 79 -141 79 C-141 78.34 -141 77.68 -141 77 C-139.35 76.67 -137.7 76.34 -136 76 C-136 75.34 -136 74.68 -136 74 C-134.35 74 -132.7 74 -131 74 C-130.67 73.01 -130.34 72.02 -130 71 C-128.68 71 -127.36 71 -126 71 C-126 70.34 -126 69.68 -126 69 C-124.68 69 -123.36 69 -122 69 C-122 68.34 -122 67.68 -122 67 C-119.05 64.26 -118.23 64 -114 64 C-114 63.34 -114 62.68 -114 62 C-112.35 62 -110.7 62 -109 62 C-109 61.01 -109 60.02 -109 59 C-107.35 59 -105.7 59 -104 59 C-104 58.34 -104 57.68 -104 57 C-103.34 57 -102.68 57 -102 57 C-102 56.34 -102 55.68 -102 55 C-100.35 54.67 -98.7 54.34 -97 54 C-97 53.34 -97 52.68 -97 52 C-95.35 52 -93.7 52 -92 52 C-92 51.01 -92 50.02 -92 49 C-90.38 48.16 -88.75 47.33 -87.12 46.5 C-86.22 46.04 -85.32 45.57 -84.38 45.09 C-82 44 -82 44 -80 44 C-80 43.34 -80 42.68 -80 42 C-78.35 42 -76.7 42 -75 42 C-75 41.34 -75 40.68 -75 40 C-73.35 40 -71.7 40 -70 40 C-70 39.01 -70 38.02 -70 37 C-68.35 37 -66.7 37 -65 37 C-65 36.34 -65 35.68 -65 35 C-64.34 35 -63.68 35 -63 35 C-62.67 34.01 -62.34 33.02 -62 32 C-60.68 32 -59.36 32 -58 32 C-58 31.34 -58 30.68 -58 30 C-56.35 30 -54.7 30 -53 30 C-53 29.01 -53 28.02 -53 27 C-52.01 27 -51.02 27 -50 27 C-50 26.34 -50 25.68 -50 25 C-48.68 25 -47.36 25 -46 25 C-45.67 24.01 -45.34 23.02 -45 22 C-43.68 22 -42.36 22 -41 22 C-41 21.34 -41 20.68 -41 20 C-40.01 20 -39.02 20 -38 20 C-38 19.34 -38 18.68 -38 18 C-36.35 18 -34.7 18 -33 18 C-33 17.01 -33 16.02 -33 15 C-31.68 15 -30.36 15 -29 15 C-29 14.34 -29 13.68 -29 13 C-28.01 13 -27.02 13 -26 13 C-25.67 12.01 -25.34 11.02 -25 10 C-23.68 10 -22.36 10 -21 10 C-21 9.34 -21 8.68 -21 8 C-19.35 8 -17.7 8 -16 8 C-16 7.01 -16 6.02 -16 5 C-13.69 5 -11.38 5 -9 5 C-9 4.34 -9 3.68 -9 3 C-6.36 3 -3.72 3 -1 3 C-0.67 2.01 -0.34 1.02 0 0 Z " fill="#133D76" transform="translate(620,67)"/>
<path d="M0 0 C11.89 6.37 21.42 16.7 25.56 29.59 C27.03 34.62 27.42 39.16 27.38 44.37 C27.39 45.26 27.39 46.16 27.4 47.07 C27.41 50.05 27.4 53.02 27.39 55.99 C27.4 58.15 27.41 60.31 27.41 62.47 C27.43 68.4 27.43 74.32 27.42 80.24 C27.42 86.63 27.43 93.03 27.45 99.42 C27.47 111.94 27.47 124.46 27.47 136.98 C27.47 147.15 27.47 157.33 27.48 167.51 C27.48 168.97 27.48 170.43 27.48 171.9 C27.48 172.62 27.48 173.35 27.48 174.1 C27.48 174.83 27.49 175.55 27.49 176.3 C27.49 177.03 27.49 177.76 27.49 178.51 C27.5 199.01 27.51 219.51 27.51 240.01 C27.51 240.78 27.51 241.55 27.5 242.35 C27.5 246.26 27.5 250.18 27.5 254.09 C27.5 254.87 27.5 255.65 27.5 256.45 C27.5 258.02 27.5 259.59 27.5 261.17 C27.49 285.62 27.51 310.08 27.54 334.54 C27.58 362.03 27.6 389.53 27.59 417.02 C27.59 419.96 27.59 422.89 27.59 425.82 C27.59 426.55 27.59 427.27 27.59 428.01 C27.59 438.9 27.6 449.79 27.62 460.68 C27.64 473.07 27.64 485.46 27.63 497.85 C27.62 504.16 27.62 510.48 27.64 516.8 C27.66 522.59 27.65 528.38 27.63 534.17 C27.62 536.26 27.63 538.35 27.64 540.44 C27.74 556.91 26.08 570.92 15 584 C14.42 584.69 13.83 585.39 13.23 586.11 C8.28 591.49 2.51 595.04 -3.77 598.69 C-6.38 600.22 -8.97 601.78 -11.55 603.35 C-23.2 610.38 -34.91 617.31 -46.68 624.15 C-52.6 627.59 -58.5 631.07 -64.36 634.61 C-69.68 637.82 -75.03 640.97 -80.38 644.12 C-88.4 648.86 -96.39 653.63 -104.38 658.44 C-113.6 663.99 -122.88 669.46 -132.19 674.87 C-138.85 678.74 -145.49 682.64 -152.12 686.56 C-153.03 687.1 -153.94 687.63 -154.87 688.19 C-157.58 689.79 -160.29 691.39 -163 693 C-175.77 700.56 -188.57 708.1 -201.38 715.6 C-212.93 722.37 -224.47 729.18 -236 736 C-239.52 738.08 -243.04 740.17 -246.56 742.25 C-247.45 742.78 -248.35 743.31 -249.27 743.85 C-254.49 746.93 -259.72 750.01 -264.95 753.07 C-267.41 754.51 -269.86 755.94 -272.31 757.38 C-273.24 757.91 -273.24 757.91 -274.18 758.47 C-282.72 763.46 -291.22 768.52 -299.69 773.62 C-311.27 780.6 -322.96 787.38 -334.69 794.1 C-340.32 797.33 -345.94 800.57 -351.56 803.81 C-353.2 804.76 -353.2 804.76 -354.88 805.72 C-361.47 809.53 -368.04 813.36 -374.59 817.22 C-380.71 820.84 -386.86 824.42 -393 828 C-399.18 831.6 -405.35 835.2 -411.51 838.83 C-412.83 839.61 -414.16 840.38 -415.48 841.16 C-419.64 843.6 -423.78 846.07 -427.92 848.55 C-448.42 860.77 -448.42 860.77 -459 864 C-459.99 864.33 -460.98 864.66 -462 865 C-483.29 867.03 -498.76 856.66 -516.44 846.12 C-520.04 843.97 -523.66 841.85 -527.28 839.73 C-528.5 839.02 -529.72 838.3 -530.95 837.59 C-531.55 837.23 -532.16 836.88 -532.78 836.51 C-535.85 834.72 -538.91 832.92 -541.97 831.12 C-548.35 827.38 -554.73 823.66 -561.12 819.94 C-574.13 812.36 -587.06 804.68 -600 797 C-617.42 786.66 -634.86 776.37 -652.34 766.14 C-655.98 764.01 -659.62 761.88 -663.26 759.75 C-663.86 759.4 -664.45 759.05 -665.07 758.68 C-668.08 756.92 -671.1 755.15 -674.12 753.38 C-679.59 750.17 -685.06 746.96 -690.54 743.76 C-693.61 741.97 -696.68 740.17 -699.75 738.38 C-700.35 738.02 -700.96 737.67 -701.58 737.3 C-711.01 731.78 -720.38 726.18 -729.74 720.54 C-738.42 715.31 -747.19 710.25 -755.98 705.2 C-762.06 701.7 -768.11 698.18 -774.12 694.55 C-780.33 690.79 -786.57 687.08 -792.81 683.38 C-793.39 683.03 -793.97 682.69 -794.56 682.34 C-803.15 677.24 -811.78 672.22 -820.44 667.25 C-831.37 660.96 -842.21 654.54 -853 648 C-854.57 647.05 -854.57 647.05 -856.16 646.09 C-875.06 634.66 -893.89 623.12 -912.66 611.5 C-913.55 610.94 -914.45 610.39 -915.37 609.82 C-917.1 608.75 -918.83 607.67 -920.57 606.59 C-924.68 604.03 -928.81 601.5 -932.98 599.03 C-947.51 590.4 -958.94 582.17 -964.15 565.27 C-966.08 556.53 -967.5 546.74 -965 538 C-961.66 533.25 -955.95 531.37 -950.76 529.22 C-945.55 526.92 -940.69 523.96 -935.75 521.12 C-933.59 519.91 -931.42 518.71 -929.25 517.5 C-921.1 512.94 -912.99 508.3 -904.88 503.65 C-899.3 500.45 -893.71 497.26 -888.12 494.06 C-887.53 493.72 -886.93 493.38 -886.32 493.03 C-877.31 487.88 -868.27 482.75 -859.23 477.65 C-852.11 473.63 -845.01 469.58 -837.92 465.52 C-830.46 461.25 -822.98 457.03 -815.49 452.81 C-810.79 450.16 -806.11 447.49 -801.46 444.77 C-800.59 444.26 -799.72 443.75 -798.83 443.23 C-797.2 442.27 -795.56 441.31 -793.94 440.34 C-792.85 439.7 -792.85 439.7 -791.74 439.05 C-790.8 438.49 -790.8 438.49 -789.83 437.92 C-787.91 436.95 -786.1 436.44 -784 436 C-785.04 441.41 -786.47 446.44 -788.31 451.62 C-790.59 458.17 -792.21 464.79 -793.69 471.56 C-793.89 472.48 -794.09 473.4 -794.3 474.35 C-794.91 477.23 -795.47 480.11 -796 483 C-796.19 484.03 -796.38 485.05 -796.58 486.11 C-798.29 496.54 -798.4 506.89 -798.38 517.44 C-798.37 518.37 -798.37 519.3 -798.37 520.25 C-798.34 534.54 -797.45 548.09 -794 562 C-793.56 563.87 -793.13 565.74 -792.69 567.61 C-791.05 574.49 -789.33 581.31 -787 588 C-786.7 587.06 -786.39 586.11 -786.08 585.14 C-783.42 576.93 -780.57 568.87 -777 561 C-776.73 560.4 -776.46 559.8 -776.18 559.19 C-760.93 526.02 -733.83 497.7 -702 480 C-701.24 479.57 -700.47 479.15 -699.69 478.71 C-679.87 467.78 -659.63 459.17 -637 456 C-636.34 456.33 -635.68 456.66 -635 457 C-635.58 457.78 -636.17 458.56 -636.77 459.36 C-653.18 481.61 -668.72 506.86 -668.44 535.38 C-668.42 537.02 -668.42 537.02 -668.41 538.7 C-668 558.1 -659.29 577.04 -645.95 591.17 C-630.84 605.43 -612.84 612.17 -592.38 612.25 C-591.15 612.27 -589.93 612.29 -588.68 612.31 C-580.95 612.35 -574.32 611.47 -567 609 C-566.3 608.78 -565.6 608.55 -564.88 608.33 C-546.49 602.3 -530.52 588.22 -521.73 571.05 C-521.21 570 -521.21 570 -520.69 568.94 C-520.22 568.01 -520.22 568.01 -519.74 567.07 C-512.09 550.5 -512.42 532.57 -512.47 514.74 C-512.46 512.02 -512.45 509.31 -512.44 506.6 C-512.42 500.05 -512.42 493.49 -512.43 486.94 C-512.43 481.61 -512.43 476.28 -512.43 470.94 C-512.42 469.8 -512.42 469.8 -512.42 468.63 C-512.42 467.08 -512.42 465.53 -512.42 463.98 C-512.4 449.5 -512.41 435.02 -512.43 420.54 C-512.44 407.32 -512.43 394.09 -512.4 380.87 C-512.37 367.25 -512.36 353.63 -512.37 340.01 C-512.37 338.47 -512.37 336.93 -512.37 335.39 C-512.37 334.25 -512.37 334.25 -512.37 333.09 C-512.37 327.77 -512.36 322.45 -512.35 317.12 C-512.33 310.63 -512.33 304.14 -512.35 297.66 C-512.37 294.35 -512.37 291.05 -512.35 287.74 C-511.97 269.22 -511.97 269.22 -518 252 C-518.36 251.32 -518.73 250.65 -519.1 249.95 C-525.45 239.06 -534.23 231.78 -544.91 225.35 C-545.6 224.9 -546.29 224.46 -547 224 C-547 223.67 -547 223.34 -547 223 C-494.53 223 -442.06 223 -388 223 C-387.84 302.26 -387.84 302.26 -387.8 335.48 C-387.8 343.08 -387.79 350.69 -387.78 358.29 C-387.78 359.24 -387.78 360.2 -387.78 361.18 C-387.76 376.51 -387.73 391.84 -387.69 407.17 C-387.65 422.94 -387.63 438.7 -387.62 454.46 C-387.62 464.17 -387.6 473.88 -387.57 483.58 C-387.55 490.26 -387.54 496.94 -387.55 503.62 C-387.55 507.46 -387.54 511.3 -387.52 515.14 C-387.4 538.75 -388.65 562 -396.62 584.44 C-396.84 585.06 -397.05 585.67 -397.27 586.31 C-405.11 609.03 -417.48 628.78 -433.7 646.47 C-435.19 648.11 -436.67 649.78 -438.12 651.47 C-471.4 689.99 -525.69 711.26 -575.39 715.81 C-591.19 716.94 -607.17 716.35 -623 716 C-565 739.42 -506.09 743.33 -447.4 719.03 C-441.11 716.33 -435.03 713.26 -429 710 C-428.4 709.68 -427.8 709.36 -427.19 709.03 C-414.85 702.41 -403.48 694.65 -393.23 685.08 C-391.18 683.17 -389.08 681.36 -386.94 679.56 C-368.56 663.46 -355.29 641.9 -345 620 C-344.69 619.37 -344.39 618.73 -344.07 618.08 C-340.3 610.22 -337.25 602.24 -334.75 593.88 C-334.52 593.12 -334.28 592.37 -334.04 591.59 C-329.17 574.36 -328.56 556.38 -328.66 538.6 C-328.66 536.46 -328.66 534.32 -328.66 532.18 C-328.66 527.63 -328.67 523.07 -328.68 518.52 C-328.7 511.31 -328.7 504.1 -328.69 496.89 C-328.67 476.41 -328.68 455.94 -328.72 435.46 C-328.74 424.11 -328.74 412.76 -328.71 401.41 C-328.7 394.25 -328.71 387.09 -328.74 379.92 C-328.76 375.48 -328.75 371.03 -328.73 366.58 C-328.73 364.53 -328.73 362.47 -328.75 360.41 C-328.78 357.59 -328.76 354.78 -328.74 351.97 C-328.76 350.75 -328.76 350.75 -328.79 349.51 C-328.69 344.09 -327.28 341.33 -323.54 337.42 C-314.6 329.19 -303.04 324.58 -291 324 C-289.69 323.92 -289.69 323.92 -288.35 323.85 C-278.37 323.54 -269.23 325.52 -259.56 327.69 C-257.86 328.06 -256.16 328.43 -254.46 328.8 C-250.35 329.69 -246.25 330.6 -242.15 331.52 C-240.25 331.94 -238.34 332.37 -236.44 332.79 C-233.6 333.42 -230.77 334.05 -227.94 334.69 C-226.67 334.97 -226.67 334.97 -225.37 335.27 C-221.15 336.23 -216.96 337.27 -212.79 338.41 C-198.53 342.24 -180.59 345.92 -166.55 339.5 C-154.97 332.67 -144.98 323.94 -135 315 C-133.88 314.01 -133.88 314.01 -132.74 313.01 C-125.97 306.98 -119.47 300.71 -113.06 294.31 C-112.54 293.79 -112.01 293.26 -111.47 292.72 C-103.67 284.93 -96.4 277 -90 268 C-89 266.66 -88 265.33 -87 264 C-87.96 263.41 -88.92 262.81 -89.9 262.2 C-103.13 253.97 -116.22 245.56 -129.16 236.89 C-134.94 233.03 -140.77 229.24 -146.6 225.46 C-151.8 222.09 -156.99 218.7 -162.16 215.3 C-174.13 207.44 -186.09 199.6 -198.27 192.08 C-201.36 190.16 -204.43 188.21 -207.5 186.25 C-208.56 185.57 -209.62 184.9 -210.72 184.2 C-211.8 183.48 -212.88 182.75 -214 182 C-214.66 181.61 -215.31 181.21 -215.99 180.8 C-222.39 176.63 -224.7 171.42 -227.56 164.5 C-228.49 162.35 -229.43 160.19 -230.36 158.04 C-230.81 157.01 -231.25 155.97 -231.71 154.9 C-233.87 150.03 -236.39 145.37 -238.95 140.71 C-240.2 137.48 -240.14 136.25 -239 133 C-236.79 131.28 -236.79 131.28 -233.84 129.72 C-232.75 129.13 -231.66 128.55 -230.53 127.94 C-229.95 127.63 -229.36 127.33 -228.76 127.01 C-226.28 125.72 -223.82 124.39 -221.36 123.06 C-220.1 122.38 -218.83 121.69 -217.56 121.01 C-211.58 117.8 -205.72 114.39 -199.88 110.94 C-191.8 106.19 -183.68 101.55 -175.5 97 C-166.28 91.87 -157.14 86.6 -148.03 81.26 C-140.76 77 -133.43 72.85 -126.06 68.75 C-118.56 64.57 -111.1 60.34 -103.72 55.95 C-97.08 52.02 -90.39 48.2 -83.69 44.38 C-82.79 43.86 -82.79 43.86 -81.88 43.34 C-78.82 41.6 -75.75 39.85 -72.69 38.1 C-57.36 29.37 -42.04 20.61 -26.75 11.81 C-25.69 11.2 -24.62 10.59 -23.52 9.96 C-18.49 7.06 -13.5 4.12 -8.63 0.95 C-5.39 -0.94 -3.46 -1.2 0 0 Z " fill="#0C2547" transform="translate(1097,325)"/>
<path d="M0 0 C0.66 0 1.32 0 2 0 C2.23 0.98 2.46 1.96 2.7 2.97 C3.03 4.34 3.36 5.7 3.69 7.06 C3.84 7.7 3.99 8.34 4.14 8.99 C5 12.52 5.96 15.89 7.26 19.28 C10.76 28.59 11.56 36.47 11.2 46.37 C11.07 50.34 11.03 54.3 11 58.26 C10.98 59.42 10.98 59.42 10.97 60.59 C10.92 69.61 12.04 78.21 14 87 C14.17 87.79 14.33 88.57 14.5 89.38 C20.99 119.54 33.88 147.18 49.21 173.79 C51 177 51 177 52 180 C53.8 180.71 53.8 180.71 56 181.02 C60.78 181.94 65.34 183.23 69.99 184.68 C70.81 184.93 71.64 185.19 72.49 185.45 C74.22 185.98 75.95 186.52 77.68 187.06 C80.29 187.87 82.91 188.68 85.52 189.48 C93.65 191.99 101.75 194.53 109.77 197.34 C112.09 198.14 112.09 198.14 115 198 C104.75 180.95 93.73 164.45 82.64 147.94 C80.47 144.7 78.31 141.46 76.15 138.21 C71.51 131.24 66.82 124.3 62.09 117.38 C55.12 107.15 48.22 96.86 41.44 86.5 C40.36 84.85 40.36 84.85 39.26 83.17 C38.59 82.16 37.93 81.14 37.25 80.09 C36.67 79.2 36.08 78.31 35.49 77.4 C31.02 70.2 31.99 64.98 33.65 56.79 C37.99 39.07 44.75 21.72 54 6 C54.66 6 55.32 6 56 6 C56.33 7.27 56.66 8.54 57 9.86 C63.94 35.88 75.61 58.99 91 81 C91.41 81.59 91.83 82.19 92.25 82.8 C101.75 96.39 112.01 109.35 122.51 122.18 C123.82 123.78 125.13 125.39 126.44 127 C130.52 132.02 134.65 136.99 138.81 141.94 C139.27 142.48 139.73 143.03 140.2 143.59 C144.21 148.34 147.68 152.07 153.23 154.96 C154.27 155.51 155.31 156.05 156.38 156.62 C157.49 157.2 158.6 157.78 159.75 158.38 C162.12 159.63 164.48 160.88 166.84 162.14 C167.74 162.62 167.74 162.62 168.66 163.11 C177.62 167.92 186.36 173.11 195.1 178.29 C197.97 179.98 200.85 181.67 203.72 183.35 C214.85 189.86 225.82 196.58 236.68 203.52 C239 205 241.33 206.47 243.67 207.93 C248.46 210.92 253.23 213.96 258 217 C258.91 217.58 259.81 218.15 260.75 218.74 C263.57 220.54 266.38 222.36 269.19 224.19 C270.05 224.73 270.91 225.28 271.8 225.84 C280.27 231.41 286.47 238.62 292 247.06 C292.42 247.7 292.84 248.34 293.27 249 C297.81 256.03 301.43 263.44 305 271 C305.87 272.82 306.74 274.65 307.61 276.47 C309.35 280.1 311.08 283.74 312.8 287.38 C313.19 288.19 313.58 288.99 313.98 289.82 C315 292 315 292 316.15 295.19 C319.16 299.76 323.68 302.03 328.31 304.81 C330.18 305.96 332.06 307.12 333.93 308.27 C334.9 308.87 335.88 309.46 336.89 310.08 C347.37 316.55 357.64 323.36 367.94 330.12 C370.48 331.79 373.02 333.46 375.55 335.12 C376.18 335.53 376.81 335.95 377.46 336.37 C384.38 340.91 391.31 345.42 398.24 349.93 C402.8 352.9 407.34 355.89 411.86 358.92 C418.08 363.07 424.38 367.11 430.69 371.12 C437.84 375.68 444.97 380.26 452 385 C443.01 397.48 432.63 408.7 421.74 419.52 C419.93 421.32 418.13 423.13 416.33 424.94 C409.53 431.75 402.56 438.03 395 444 C393.89 444.93 392.78 445.87 391.69 446.82 C376.46 459.88 364.34 465.58 344.28 464.34 C335.1 463.38 326.17 460.86 317.26 458.57 C309.68 456.64 302.05 454.95 294.41 453.27 C292.14 452.77 289.87 452.26 287.6 451.75 C280.69 450.22 273.78 448.71 266.85 447.29 C265.11 446.92 265.11 446.92 263.33 446.55 C248.71 444.12 233.25 446.63 220.61 454.48 C216.76 457.25 213.61 460 211 464 C210.62 467.03 210.46 469.7 210.5 472.73 C210.5 473.61 210.49 474.49 210.48 475.39 C210.47 478.34 210.49 481.28 210.5 484.23 C210.5 486.34 210.49 488.46 210.48 490.57 C210.47 495.12 210.47 499.68 210.48 504.23 C210.5 511.45 210.49 518.67 210.47 525.89 C210.44 539.93 210.44 553.98 210.44 568.03 C210.44 585.85 210.43 603.67 210.39 621.48 C210.37 628.64 210.37 635.79 210.39 642.95 C210.39 647.44 210.38 651.92 210.37 656.41 C210.37 658.46 210.37 660.52 210.38 662.58 C210.45 680.82 209.18 699.06 203.69 716.56 C203.38 717.57 203.08 718.57 202.76 719.61 C200.43 727.1 197.62 734.03 194 741 C193.37 742.29 192.75 743.58 192.13 744.88 C184.18 761.33 174.54 776.24 162.11 789.71 C160.24 791.74 158.46 793.82 156.69 795.94 C129.14 827.33 85.63 847.62 45.01 854.64 C43.63 854.89 42.26 855.15 40.88 855.41 C-0.45 863.5 -48.66 856.77 -86 837 C-86 836.67 -86 836.34 -86 836 C-84.17 836.04 -84.17 836.04 -82.3 836.08 C-49.25 836.72 -17.57 835.93 14 825 C15.28 824.56 15.28 824.56 16.59 824.11 C50.23 812.4 83.15 792.85 106 765 C106.68 764.2 107.37 763.41 108.07 762.59 C114.37 755.14 119.9 747.31 125 739 C125.41 738.33 125.83 737.65 126.25 736.96 C132.25 726.95 136.58 716.44 140.38 705.44 C140.78 704.3 141.18 703.16 141.6 701.99 C148.88 679.91 149.6 656.96 149.55 633.93 C149.54 630.02 149.56 626.11 149.58 622.2 C149.6 615.47 149.61 608.73 149.61 601.99 C149.61 592.25 149.63 582.5 149.65 572.76 C149.69 556.95 149.72 541.13 149.73 525.32 C149.74 509.98 149.76 494.63 149.79 479.29 C149.8 477.85 149.8 477.85 149.8 476.39 C149.81 468.89 149.83 461.39 149.85 453.89 C149.92 417.26 149.96 380.63 150 344 C97.86 344.33 45.72 344.66 -8 345 C-2.56 348.47 -2.56 348.47 3 352 C14.47 360.41 22.16 372.36 26 386 C26.52 389.91 26.55 393.76 26.51 397.7 C26.52 398.82 26.53 399.95 26.54 401.11 C26.55 404.85 26.54 408.6 26.53 412.34 C26.54 415.04 26.55 417.74 26.56 420.43 C26.58 426.98 26.58 433.53 26.57 440.08 C26.57 445.42 26.57 450.75 26.57 456.08 C26.58 456.84 26.58 457.6 26.58 458.39 C26.58 459.93 26.58 461.48 26.58 463.03 C26.6 477.52 26.59 492.01 26.57 506.5 C26.56 519.71 26.57 532.92 26.6 546.14 C26.63 559.74 26.64 573.34 26.63 586.95 C26.63 588.49 26.63 590.04 26.63 591.58 C26.63 592.34 26.63 593.1 26.63 593.88 C26.63 599.19 26.64 604.51 26.65 609.82 C26.67 616.31 26.67 622.81 26.65 629.3 C26.63 632.6 26.63 635.91 26.65 639.21 C26.77 665.58 23.43 690.11 4.37 709.74 C2.93 711.18 1.46 712.59 0 714 C-0.68 714.68 -1.35 715.37 -2.05 716.07 C-11.64 725.21 -23.3 730.03 -36 733 C-36.59 733.18 -37.19 733.35 -37.8 733.53 C-42.96 734.63 -48.43 734.23 -53.69 734.25 C-55.55 734.28 -55.55 734.28 -57.45 734.31 C-64.61 734.34 -70.4 733.77 -77 731 C-78.45 730.53 -78.45 730.53 -79.93 730.04 C-98.62 723.66 -113.53 710.49 -122.38 692.88 C-125.04 687.39 -127.39 681.9 -129 676 C-129.35 675.01 -129.69 674.02 -130.05 673 C-133.89 659.46 -132.02 641.97 -127 629 C-126.71 628.22 -126.42 627.45 -126.12 626.64 C-119.35 608.82 -109.55 593.11 -98 578 C-116.82 581.41 -133.78 586.57 -151 595 C-151.75 595.36 -152.49 595.72 -153.26 596.09 C-196.74 617.33 -229.26 654.39 -245 700 C-246.07 703.32 -247.08 706.64 -248 710 C-250 709 -250 709 -250.74 707.4 C-252.94 700.61 -254.54 693.72 -256.06 686.75 C-256.32 685.61 -256.57 684.47 -256.84 683.3 C-257.59 679.87 -258.31 676.44 -259 673 C-259.2 672 -259.41 671 -259.62 669.97 C-261.29 660.69 -261.34 651.46 -261.32 642.06 C-261.31 639.33 -261.34 636.61 -261.36 633.88 C-261.4 622.28 -260.31 611.35 -258 600 C-257.8 598.96 -257.6 597.93 -257.4 596.86 C-254.76 583.48 -250.88 570.72 -246 558 C-245.58 556.89 -245.16 555.79 -244.72 554.65 C-231.99 522.83 -212.32 491.29 -187.53 467.53 C-185.26 465.26 -183.27 462.78 -181.26 460.29 C-180.85 459.86 -180.43 459.44 -180 459 C-179.34 459 -178.68 459 -178 459 C-178 458.34 -178 457.68 -178 457 C-212.16 469.63 -247.5 485.86 -273.3 512.36 C-275 514 -275 514 -277 514 C-268.56 454.88 -240.46 401.47 -200.34 357.58 C-199.05 356.16 -197.76 354.73 -196.51 353.27 C-191.66 347.63 -186.51 342.32 -181.25 337.06 C-180.36 336.18 -179.47 335.29 -178.56 334.37 C-172.63 328.5 -166.6 323.11 -160 318 C-158.14 316.42 -156.29 314.84 -154.44 313.25 C-140.49 301.64 -125.29 291.74 -110 282 C-120.27 282.32 -130.01 282.89 -140.02 285.3 C-142.63 285.91 -145.15 286.33 -147.81 286.62 C-150.86 286.65 -150.86 286.65 -152 288 C-153.41 288.3 -154.83 288.57 -156.25 288.81 C-162.66 290.05 -168.78 292.02 -175 294 C-176.38 294.42 -177.76 294.85 -179.14 295.27 C-179.84 295.48 -180.55 295.7 -181.27 295.92 C-182.63 296.34 -183.99 296.75 -185.36 297.16 C-189.72 298.51 -193.83 300.14 -198 302 C-188.99 282.28 -165 261.77 -148 249 C-147.35 248.5 -146.7 248 -146.03 247.49 C-119.07 226.8 -82.53 201.43 -48 197 C-48.12 196.39 -48.24 195.79 -48.37 195.16 C-49.18 191.08 -49.18 191.08 -50 187 C-50.16 186.3 -50.32 185.6 -50.49 184.88 C-51.87 178.6 -52.35 172.6 -52.41 166.18 C-52.42 165.16 -52.43 164.15 -52.45 163.11 C-52.48 159.84 -52.5 156.58 -52.5 153.31 C-52.5 152.2 -52.51 151.08 -52.51 149.93 C-52.5 131.22 -50.92 114.1 -46 96 C-45.74 95 -45.48 94.01 -45.21 92.98 C-42.81 83.98 -39.96 75.27 -36.19 66.75 C-34.96 63.91 -33.92 61.04 -32.88 58.12 C-26.31 41.02 -17.14 25.21 -7 10 C-6.61 9.41 -6.22 8.82 -5.83 8.22 C-1.75 2.03 -1.75 2.03 0 0 Z " fill="#FCFCFD" transform="translate(559,204)"/>
<path d="M0 0 C3.02 0.59 6.02 1.23 9 2 C9 2.99 9 3.98 9 5 C9.76 5.14 10.53 5.29 11.31 5.44 C14 6 14 6 17 7 C17 7.66 17 8.32 17 9 C17.66 9 18.32 9 19 9 C19 9.99 19 10.98 19 12 C19.87 12.12 19.87 12.12 20.75 12.25 C23.65 13.22 25.04 14.69 27 17 C27 17.66 27 18.32 27 19 C27.66 19 28.32 19 29 19 C29 19.99 29 20.98 29 22 C29.66 22 30.32 22 31 22 C31.33 23.65 31.66 25.3 32 27 C32.66 27 33.32 27 34 27 C34 28.65 34 30.3 34 32 C34.66 32 35.32 32 36 32 C36 34.97 36 37.94 36 41 C36.99 41.33 37.98 41.66 39 42 C39 215.25 39 388.5 39 567 C38.01 567.33 37.02 567.66 36 568 C36 570.31 36 572.62 36 575 C35.34 575 34.68 575 34 575 C33.88 576.09 33.75 577.19 33.62 578.31 C33 582 33 582 31 585 C30.34 585 29.68 585 29 585 C29 586.65 29 588.3 29 590 C28.34 590 27.68 590 27 590 C27 590.66 27 591.32 27 592 C26.01 592 25.02 592 24 592 C24 592.99 24 593.98 24 595 C23.34 595 22.68 595 22 595 C22 595.66 22 596.32 22 597 C21.01 597 20.02 597 19 597 C19 597.99 19 598.98 19 600 C18.34 600 17.68 600 17 600 C17 600.66 17 601.32 17 602 C15.35 602 13.7 602 12 602 C11.67 602.99 11.34 603.98 11 605 C4.94 609 4.94 609 0 609 C0 609.99 0 610.98 0 612 C-3.09 613.76 -4.23 614 -8 614 C-8.33 614.99 -8.66 615.98 -9 617 C-10.32 617 -11.64 617 -13 617 C-13 617.66 -13 618.32 -13 619 C-13.87 619.12 -13.87 619.12 -14.75 619.25 C-17.18 619.87 -17.18 619.87 -19 622.06 C-21 624 -21 624 -25 624 C-25 624.99 -25 625.98 -25 627 C-26.65 627 -28.3 627 -30 627 C-30 627.66 -30 628.32 -30 629 C-30.97 629.45 -31.94 629.91 -32.94 630.38 C-36.07 631.66 -36.07 631.66 -37 634 C-38.65 634 -40.3 634 -42 634 C-42 634.66 -42 635.32 -42 636 C-42.99 636 -43.98 636 -45 636 C-45 636.99 -45 637.98 -45 639 C-46.32 639 -47.64 639 -49 639 C-49 639.66 -49 640.32 -49 641 C-50.65 641 -52.3 641 -54 641 C-54 641.99 -54 642.98 -54 644 C-55.65 644 -57.3 644 -59 644 C-59 644.66 -59 645.32 -59 646 C-59.99 646 -60.98 646 -62 646 C-62 646.66 -62 647.32 -62 648 C-63.65 648.33 -65.3 648.66 -67 649 C-67 649.66 -67 650.32 -67 651 C-71.38 654 -71.38 654 -74 654 C-74 654.66 -74 655.32 -74 656 C-75.65 656 -77.3 656 -79 656 C-79 656.66 -79 657.32 -79 658 C-80.65 658 -82.3 658 -84 658 C-84 658.99 -84 659.98 -84 661 C-84.66 661 -85.32 661 -86 661 C-86 661.66 -86 662.32 -86 663 C-87.65 663 -89.3 663 -91 663 C-91 663.99 -91 664.98 -91 666 C-92.11 666.45 -93.23 666.91 -94.38 667.38 C-97.96 668.72 -97.96 668.72 -100 671 C-100.99 671 -101.98 671 -103 671 C-103 671.66 -103 672.32 -103 673 C-104.65 673 -106.3 673 -108 673 C-108.33 673.99 -108.66 674.98 -109 676 C-111.6 677.65 -112.86 678 -116 678 C-116 678.66 -116 679.32 -116 680 C-117.32 680 -118.64 680 -120 680 C-120 680.99 -120 681.98 -120 683 C-120.99 683 -121.98 683 -123 683 C-123 683.66 -123 684.32 -123 685 C-124.65 685 -126.3 685 -128 685 C-128 685.99 -128 686.98 -128 688 C-129.65 688 -131.3 688 -133 688 C-133 688.66 -133 689.32 -133 690 C-133.96 690.19 -133.96 690.19 -134.94 690.38 C-135.62 690.58 -136.3 690.79 -137 691 C-137.33 691.66 -137.66 692.32 -138 693 C-138.66 693 -139.32 693 -140 693 C-140 693.66 -140 694.32 -140 695 C-141.65 695 -143.3 695 -145 695 C-145 695.99 -145 696.98 -145 698 C-146.65 698 -148.3 698 -150 698 C-150 698.66 -150 699.32 -150 700 C-154.38 703 -154.38 703 -157 703 C-157 703.66 -157 704.32 -157 705 C-158.65 705 -160.3 705 -162 705 C-162 705.66 -162 706.32 -162 707 C-162.99 707 -163.98 707 -165 707 C-165 707.66 -165 708.32 -165 709 C-166.32 709.33 -167.64 709.66 -169 710 C-169 710.66 -169 711.32 -169 712 C-170.65 712 -172.3 712 -174 712 C-174 712.99 -174 713.98 -174 715 C-176.91 716.26 -178.8 717 -182 717 C-182.33 717.99 -182.66 718.98 -183 720 C-184.32 720 -185.64 720 -187 720 C-187 720.66 -187 721.32 -187 722 C-191.38 725 -191.38 725 -194 725 C-194 725.66 -194 726.32 -194 727 C-195.65 727 -197.3 727 -199 727 C-199 727.66 -199 728.32 -199 729 C-200.65 729 -202.3 729 -204 729 C-204 729.99 -204 730.98 -204 732 C-207 734 -207 734 -211 734 C-211 734.99 -211 735.98 -211 737 C-212.65 737 -214.3 737 -216 737 C-216 737.66 -216 738.32 -216 739 C-216.99 739 -217.98 739 -219 739 C-219 739.66 -219 740.32 -219 741 C-222.37 743.43 -223.73 744 -228 744 C-228.33 744.99 -228.66 745.98 -229 747 C-230.32 747 -231.64 747 -233 747 C-233 747.66 -233 748.32 -233 749 C-233.99 749 -234.98 749 -236 749 C-236 749.66 -236 750.32 -236 751 C-236.99 751.33 -237.98 751.66 -239 752 C-239.33 752.66 -239.66 753.32 -240 754 C-243.03 755.88 -244.25 756 -248 756 C-248 756.99 -248 757.98 -248 759 C-249.65 759 -251.3 759 -253 759 C-253 759.66 -253 760.32 -253 761 C-254.65 761 -256.3 761 -258 761 C-258 761.99 -258 762.98 -258 764 C-258.66 764 -259.32 764 -260 764 C-260 764.66 -260 765.32 -260 766 C-261.65 766 -263.3 766 -265 766 C-265 766.99 -265 767.98 -265 769 C-266.65 769 -268.3 769 -270 769 C-270 769.66 -270 770.32 -270 771 C-271.65 771 -273.3 771 -275 771 C-275 771.99 -275 772.98 -275 774 C-278 776 -278 776 -282 776 C-282 776.66 -282 777.32 -282 778 C-283.65 778 -285.3 778 -287 778 C-287 778.99 -287 779.98 -287 781 C-290 783 -290 783 -294 783 C-294 783.99 -294 784.98 -294 786 C-295.65 786 -297.3 786 -299 786 C-299 786.66 -299 787.32 -299 788 C-301.91 790.04 -303.4 791 -307 791 C-307 791.66 -307 792.32 -307 793 C-308.32 793 -309.64 793 -311 793 C-311.33 793.99 -311.66 794.98 -312 796 C-314.6 797.65 -315.86 798 -319 798 C-319 798.66 -319 799.32 -319 800 C-319.96 800.19 -319.96 800.19 -320.94 800.38 C-321.62 800.58 -322.3 800.79 -323 801 C-323.33 801.66 -323.66 802.32 -324 803 C-325.65 803 -327.3 803 -329 803 C-329 803.66 -329 804.32 -329 805 C-331.56 807.3 -332.48 808 -336 808 C-336 808.66 -336 809.32 -336 810 C-337.65 810 -339.3 810 -341 810 C-341 810.99 -341 811.98 -341 813 C-342.65 813 -344.3 813 -346 813 C-346 813.66 -346 814.32 -346 815 C-346.99 815 -347.98 815 -349 815 C-349 815.66 -349 816.32 -349 817 C-350.32 817.33 -351.64 817.66 -353 818 C-353 818.66 -353 819.32 -353 820 C-354.65 820 -356.3 820 -358 820 C-358.33 820.99 -358.66 821.98 -359 823 C-359.66 823 -360.32 823 -361 823 C-361 823.66 -361 824.32 -361 825 C-362.32 825 -363.64 825 -365 825 C-365 825.66 -365 826.32 -365 827 C-366.65 827 -368.3 827 -370 827 C-370 827.99 -370 828.98 -370 830 C-371.65 830 -373.3 830 -375 830 C-375 830.66 -375 831.32 -375 832 C-375.99 832 -376.98 832 -378 832 C-378 832.99 -378 833.98 -378 835 C-379.32 835 -380.64 835 -382 835 C-382 835.66 -382 836.32 -382 837 C-383.65 837 -385.3 837 -387 837 C-387.33 837.99 -387.66 838.98 -388 840 C-390.6 841.65 -391.86 842 -395 842 C-395 842.66 -395 843.32 -395 844 C-396.65 844.33 -398.3 844.66 -400 845 C-400 845.66 -400 846.32 -400 847 C-401.32 847 -402.64 847 -404 847 C-404 847.66 -404 848.32 -404 849 C-404.99 849 -405.98 849 -407 849 C-407.33 849.99 -407.66 850.98 -408 852 C-409.32 852 -410.64 852 -412 852 C-412 852.66 -412 853.32 -412 854 C-413.65 854 -415.3 854 -417 854 C-417 854.99 -417 855.98 -417 857 C-418.65 857 -420.3 857 -422 857 C-422 857.66 -422 858.32 -422 859 C-422.66 859 -423.32 859 -424 859 C-424.33 859.99 -424.66 860.98 -425 862 C-426.32 862 -427.64 862 -429 862 C-429 862.66 -429 863.32 -429 864 C-429.99 864 -430.98 864 -432 864 C-432 864.66 -432 865.32 -432 866 C-439.29 869.43 -439.29 869.43 -444 869 C-444 869.66 -444 870.32 -444 871 C-447.47 872.16 -450.36 872.07 -454 872 C-454 872.66 -454 873.32 -454 874 C-458.62 874 -463.24 874 -468 874 C-468 873.34 -468 872.68 -468 872 C-468.93 872.04 -469.86 872.08 -470.81 872.12 C-474 872 -474 872 -477 870 C-478.99 869.61 -480.99 869.27 -483 869 C-483 868.34 -483 867.68 -483 867 C-484.65 866.67 -486.3 866.34 -488 866 C-488 865.34 -488 864.68 -488 864 C-489.65 864 -491.3 864 -493 864 C-493 863.34 -493 862.68 -493 862 C-494.32 862 -495.64 862 -497 862 C-497 861.01 -497 860.02 -497 859 C-497.99 859 -498.98 859 -500 859 C-500 858.34 -500 857.68 -500 857 C-501.65 857 -503.3 857 -505 857 C-505 856.01 -505 855.02 -505 854 C-506.65 854 -508.3 854 -510 854 C-510 853.34 -510 852.68 -510 852 C-511.32 852 -512.64 852 -514 852 C-515.35 850.69 -516.69 849.35 -518 848 C-520.14 847.21 -520.14 847.21 -522 847 C-522 846.34 -522 845.68 -522 845 C-523.65 844.67 -525.3 844.34 -527 844 C-527 843.34 -527 842.68 -527 842 C-527.6 841.86 -528.2 841.71 -528.81 841.56 C-530.56 841.11 -532.29 840.57 -534 840 C-534 839.01 -534 838.02 -534 837 C-535.65 837 -537.3 837 -539 837 C-539 836.34 -539 835.68 -539 835 C-540.65 834.67 -542.3 834.34 -544 834 C-544 833.34 -544 832.68 -544 832 C-544.66 832 -545.32 832 -546 832 C-546 831.34 -546 830.68 -546 830 C-547.65 830 -549.3 830 -551 830 C-551 829.01 -551 828.02 -551 827 C-551.76 826.86 -552.53 826.71 -553.31 826.56 C-556 826 -556 826 -559 825 C-559 824.34 -559 823.68 -559 823 C-560.65 822.67 -562.3 822.34 -564 822 C-564 821.34 -564 820.68 -564 820 C-565.32 820 -566.64 820 -568 820 C-568 819.34 -568 818.68 -568 818 C-569.65 817.67 -571.3 817.34 -573 817 C-573 816.34 -573 815.68 -573 815 C-573.99 815 -574.98 815 -576 815 C-576 814.34 -576 813.68 -576 813 C-577.65 813 -579.3 813 -581 813 C-581 812.01 -581 811.02 -581 810 C-582.65 810 -584.3 810 -586 810 C-586 809.34 -586 808.68 -586 808 C-587.32 807.67 -588.64 807.34 -590 807 C-590 806.34 -590 805.68 -590 805 C-590.99 805 -591.98 805 -593 805 C-593 804.34 -593 803.68 -593 803 C-593.76 802.9 -594.53 802.79 -595.31 802.69 C-598.27 801.93 -598.96 801.13 -601 799 C-603.1 798.29 -603.1 798.29 -605 798 C-605 797.34 -605 796.68 -605 796 C-606.65 795.67 -608.3 795.34 -610 795 C-610 794.34 -610 793.68 -610 793 C-611.65 793 -613.3 793 -615 793 C-615 792.34 -615 791.68 -615 791 C-615.66 791 -616.32 791 -617 791 C-617.33 790.34 -617.66 789.68 -618 789 C-620.02 788.35 -620.02 788.35 -622 788 C-622 787.34 -622 786.68 -622 786 C-623.65 785.67 -625.3 785.34 -627 785 C-627 784.34 -627 783.68 -627 783 C-627.76 782.86 -628.53 782.71 -629.31 782.56 C-632 782 -632 782 -635 781 C-635 780.01 -635 779.02 -635 778 C-635.78 777.86 -636.57 777.71 -637.38 777.56 C-640 777 -640 777 -642 776 C-642 775.34 -642 774.68 -642 774 C-643.65 773.67 -645.3 773.34 -647 773 C-647 772.34 -647 771.68 -647 771 C-648.65 771 -650.3 771 -652 771 C-652 770.34 -652 769.68 -652 769 C-652.78 768.69 -653.57 768.38 -654.38 768.06 C-657 767 -657 767 -659 766 C-659 765.34 -659 764.68 -659 764 C-660.65 764 -662.3 764 -664 764 C-664 763.01 -664 762.02 -664 761 C-665.32 761 -666.64 761 -668 761 C-668 760.34 -668 759.68 -668 759 C-668.99 759 -669.98 759 -671 759 C-671 758.01 -671 757.02 -671 756 C-672.65 756 -674.3 756 -676 756 C-676 755.34 -676 754.68 -676 754 C-677.65 754 -679.3 754 -681 754 C-681 753.34 -681 752.68 -681 752 C-682.65 751.67 -684.3 751.34 -686 751 C-686 750.34 -686 749.68 -686 749 C-686.97 748.73 -687.94 748.46 -688.94 748.19 C-690.45 747.6 -690.45 747.6 -692 747 C-692.33 746.01 -692.66 745.02 -693 744 C-694.65 744 -696.3 744 -698 744 C-698 743.34 -698 742.68 -698 742 C-698.58 741.88 -699.15 741.75 -699.75 741.62 C-702.02 740.99 -703.93 740.11 -706 739 C-706 738.34 -706 737.68 -706 737 C-707.32 737 -708.64 737 -710 737 C-710 736.01 -710 735.02 -710 734 C-710.99 734 -711.98 734 -713 734 C-713 733.34 -713 732.68 -713 732 C-714.65 732 -716.3 732 -718 732 C-718 731.01 -718 730.02 -718 729 C-718.66 729 -719.32 729 -720 729 C-720 728.34 -720 727.68 -720 727 C-721.65 727 -723.3 727 -725 727 C-725 726.34 -725 725.68 -725 725 C-726.65 724.67 -728.3 724.34 -730 724 C-730 723.34 -730 722.68 -730 722 C-731.65 722 -733.3 722 -735 722 C-735 721.34 -735 720.68 -735 720 C-735.78 719.69 -736.57 719.38 -737.38 719.06 C-740 718 -740 718 -742 717 C-742 716.34 -742 715.68 -742 715 C-743.65 715 -745.3 715 -747 715 C-747 714.01 -747 713.02 -747 712 C-748.65 712 -750.3 712 -752 712 C-752 711.34 -752 710.68 -752 710 C-752.99 710 -753.98 710 -755 710 C-755 709.01 -755 708.02 -755 707 C-756.02 706.88 -756.02 706.88 -757.06 706.75 C-760.87 705.78 -763.64 704.04 -767 702 C-767 701.34 -767 700.68 -767 700 C-768.65 700 -770.3 700 -772 700 C-772 699.34 -772 698.68 -772 698 C-772.6 697.88 -773.2 697.75 -773.81 697.62 C-776 697 -776 697 -779 695 C-779 694.34 -779 693.68 -779 693 C-780.65 693 -782.3 693 -784 693 C-784 692.01 -784 691.02 -784 690 C-785.65 690 -787.3 690 -789 690 C-789 689.34 -789 688.68 -789 688 C-789.78 687.69 -790.57 687.38 -791.38 687.06 C-794 686 -794 686 -796 685 C-796 684.34 -796 683.68 -796 683 C-797.65 683 -799.3 683 -801 683 C-801 682.01 -801 681.02 -801 680 C-802.65 680 -804.3 680 -806 680 C-806 679.34 -806 678.68 -806 678 C-806.97 677.73 -807.94 677.46 -808.94 677.19 C-810.45 676.6 -810.45 676.6 -812 676 C-812.33 675.01 -812.66 674.02 -813 673 C-814.65 673 -816.3 673 -818 673 C-818 672.34 -818 671.68 -818 671 C-819.65 670.67 -821.3 670.34 -823 670 C-823 669.34 -823 668.68 -823 668 C-823.99 668 -824.98 668 -826 668 C-826 667.34 -826 666.68 -826 666 C-827.32 666 -828.64 666 -830 666 C-831.75 664.63 -831.75 664.63 -833 663 C-833 662.34 -833 661.68 -833 661 C-834.65 661 -836.3 661 -838 661 C-838 660.01 -838 659.02 -838 658 C-838.68 657.9 -839.36 657.79 -840.06 657.69 C-843.63 656.85 -846.66 655.51 -850 654 C-850 653.01 -850 652.02 -850 651 C-851.65 651 -853.3 651 -855 651 C-855 650.34 -855 649.68 -855 649 C-857.33 647.79 -859.5 646.83 -862 646 C-862 645.34 -862 644.68 -862 644 C-863.65 644 -865.3 644 -867 644 C-867 643.01 -867 642.02 -867 641 C-867.58 640.86 -868.15 640.71 -868.75 640.56 C-870.83 640.04 -872.92 639.52 -875 639 C-875 638.01 -875 637.02 -875 636 C-876.32 636 -877.64 636 -879 636 C-879 635.34 -879 634.68 -879 634 C-879.99 634 -880.98 634 -882 634 C-882 633.34 -882 632.68 -882 632 C-883.65 631.67 -885.3 631.34 -887 631 C-887 630.34 -887 629.68 -887 629 C-888.32 629 -889.64 629 -891 629 C-891 628.34 -891 627.68 -891 627 C-892.65 626.67 -894.3 626.34 -896 626 C-896 625.34 -896 624.68 -896 624 C-896.99 624 -897.98 624 -899 624 C-899 623.34 -899 622.68 -899 622 C-900.65 621.67 -902.3 621.34 -904 621 C-904 620.34 -904 619.68 -904 619 C-906.31 618.34 -908.62 617.68 -911 617 C-911 616.01 -911 615.02 -911 614 C-911.99 614 -912.98 614 -914 614 C-914 613.34 -914 612.68 -914 612 C-915.65 611.67 -917.3 611.34 -919 611 C-919 610.34 -919 609.68 -919 609 C-920.32 609 -921.64 609 -923 609 C-923 608.34 -923 607.68 -923 607 C-923.99 607 -924.98 607 -926 607 C-926 606.34 -926 605.68 -926 605 C-927.65 604.67 -929.3 604.34 -931 604 C-931 603.34 -931 602.68 -931 602 C-932.65 602 -934.3 602 -936 602 C-936 601.34 -936 600.68 -936 600 C-936.66 600 -937.32 600 -938 600 C-938 599.01 -938 598.02 -938 597 C-939.65 597 -941.3 597 -943 597 C-943 596.34 -943 595.68 -943 595 C-943.99 594.67 -944.98 594.34 -946 594 C-946 593.34 -946 592.68 -946 592 C-946.66 592 -947.32 592 -948 592 C-948 590.35 -948 588.7 -948 587 C-948.99 587 -949.98 587 -951 587 C-951 586.34 -951 585.68 -951 585 C-951.66 585 -952.32 585 -953 585 C-953 583.35 -953 581.7 -953 580 C-953.66 580 -954.32 580 -955 580 C-957.6 573.98 -958.43 569.21 -958.37 562.69 C-958.37 561.78 -958.38 560.87 -958.38 559.94 C-958.39 556.89 -958.37 553.85 -958.36 550.8 C-958.36 548.6 -958.36 546.39 -958.37 544.19 C-958.38 538.13 -958.36 532.07 -958.35 526.01 C-958.34 520.15 -958.34 514.28 -958.34 508.42 C-958.35 496.43 -958.34 484.44 -958.32 472.44 C-958.3 460.57 -958.29 448.7 -958.28 436.83 C-958.28 436.09 -958.28 435.35 -958.28 434.59 C-958.28 430.84 -958.28 427.09 -958.28 423.34 C-958.27 396.79 -958.25 370.23 -958.23 343.67 C-958.2 317.88 -958.18 292.08 -958.16 266.28 C-958.16 265.49 -958.16 264.69 -958.16 263.87 C-958.16 255.89 -958.16 247.9 -958.15 239.91 C-958.14 223.64 -958.14 207.37 -958.13 191.1 C-958.13 190.36 -958.13 189.61 -958.13 188.84 C-958.1 138.89 -958.05 88.95 -958 39 C-957.34 39 -956.68 39 -956 39 C-956 40.11 -956 41.22 -956 42.37 C-956.05 91.35 -956.1 140.33 -956.13 189.3 C-956.13 190.05 -956.13 190.79 -956.13 191.55 C-956.14 207.67 -956.15 223.78 -956.15 239.9 C-956.16 247.8 -956.16 255.71 -956.16 263.61 C-956.17 264.4 -956.17 265.18 -956.17 265.99 C-956.18 291.48 -956.2 316.97 -956.23 342.46 C-956.26 368.66 -956.28 394.86 -956.28 421.05 C-956.28 424.75 -956.28 428.45 -956.28 432.15 C-956.28 432.88 -956.29 433.61 -956.29 434.36 C-956.29 446.08 -956.3 457.8 -956.32 469.52 C-956.34 481.31 -956.34 493.09 -956.34 504.88 C-956.34 511.26 -956.34 517.65 -956.36 524.03 C-956.37 529.88 -956.37 535.72 -956.36 541.57 C-956.36 543.68 -956.37 545.8 -956.37 547.91 C-956.39 550.79 -956.38 553.66 -956.37 556.54 C-956.38 557.77 -956.38 557.77 -956.39 559.02 C-956.32 567.33 -954.02 574.93 -949.88 582.12 C-949.36 583.06 -948.84 583.99 -948.3 584.95 C-941.96 593.35 -933.46 598.42 -924.44 603.56 C-922.02 604.97 -919.6 606.38 -917.18 607.79 C-916.57 608.14 -915.97 608.5 -915.34 608.86 C-909.5 612.27 -903.78 615.83 -898.06 619.44 C-884.81 627.79 -871.41 635.9 -858 644 C-857.25 644.45 -856.51 644.9 -855.74 645.36 C-851.5 647.93 -847.25 650.47 -843 653 C-841.6 653.83 -841.6 653.83 -840.18 654.68 C-827.69 662.12 -815.17 669.51 -802.56 676.75 C-793.39 682.02 -784.28 687.39 -775.22 692.86 C-758.4 703 -741.44 712.93 -724.49 722.85 C-716.44 727.57 -708.4 732.3 -700.37 737.05 C-692.87 741.5 -685.34 745.91 -677.81 750.31 C-668.36 755.85 -658.92 761.41 -649.5 767 C-639.98 772.65 -630.43 778.28 -620.88 783.88 C-620.26 784.24 -619.64 784.6 -619 784.98 C-614.16 787.81 -609.32 790.64 -604.48 793.47 C-596.71 798.02 -588.96 802.62 -581.25 807.27 C-570.4 813.8 -559.5 820.21 -548.52 826.51 C-541.65 830.46 -534.81 834.46 -528 838.5 C-516.6 845.26 -505.13 851.89 -493.64 858.48 C-492.06 859.39 -490.49 860.3 -488.92 861.22 C-476.96 868.23 -464.63 871.45 -450.96 868.3 C-448.2 867.36 -445.63 866.26 -443 865 C-442.05 864.56 -441.1 864.13 -440.12 863.68 C-433.64 860.58 -427.55 856.98 -421.5 853.12 C-417.73 850.77 -413.81 848.71 -409.91 846.59 C-405.2 844.01 -400.57 841.28 -395.94 838.56 C-387.16 833.42 -378.37 828.32 -369.56 823.25 C-361.82 818.79 -354.08 814.31 -346.38 809.76 C-340.52 806.3 -334.63 802.87 -328.75 799.44 C-309.18 788.03 -289.64 776.58 -270.16 765.02 C-261.35 759.79 -252.51 754.6 -243.67 749.43 C-234.93 744.31 -226.21 739.17 -217.5 734 C-208.08 728.41 -198.64 722.85 -189.19 717.31 C-177.11 710.24 -165.05 703.13 -153 696 C-149.48 693.92 -145.96 691.83 -142.44 689.75 C-141.55 689.22 -140.66 688.7 -139.74 688.16 C-134.46 685.04 -129.17 681.92 -123.87 678.82 C-122.95 678.29 -122.95 678.29 -122.01 677.74 C-120.76 677.01 -119.51 676.27 -118.26 675.54 C-108.54 669.85 -98.83 664.13 -89.18 658.32 C-82.21 654.12 -75.2 649.98 -68.19 645.85 C-62.26 642.34 -56.34 638.81 -50.44 635.25 C-42.79 630.64 -35.1 626.11 -27.39 621.61 C-21.93 618.41 -16.46 615.2 -11 612 C-9.98 611.4 -8.95 610.8 -7.9 610.18 C-5.18 608.59 -2.46 606.98 0.25 605.38 C1.02 604.93 1.78 604.48 2.57 604.02 C17.93 594.87 28.22 584.01 33.35 566.7 C34.33 562.65 34.41 558.78 34.38 554.62 C34.39 553.28 34.39 553.28 34.39 551.91 C34.41 548.94 34.4 545.96 34.39 542.99 C34.39 540.82 34.4 538.66 34.4 536.5 C34.42 530.57 34.41 524.64 34.41 518.71 C34.4 512.32 34.41 505.92 34.42 499.52 C34.44 487.71 34.44 475.91 34.44 464.1 C34.43 453.19 34.43 442.28 34.44 431.38 C34.44 429.91 34.44 428.45 34.44 426.98 C34.44 424.78 34.44 422.57 34.45 420.36 C34.46 399.85 34.46 379.35 34.45 358.84 C34.45 358.06 34.45 357.29 34.45 356.5 C34.45 350.22 34.45 343.94 34.45 337.67 C34.43 313.19 34.44 288.71 34.47 264.23 C34.49 236.72 34.51 209.21 34.5 181.7 C34.5 178.76 34.5 175.83 34.5 172.89 C34.5 171.81 34.5 171.81 34.5 170.7 C34.49 159.8 34.5 148.9 34.51 138.01 C34.53 125.61 34.53 113.21 34.51 100.81 C34.5 94.49 34.5 88.17 34.52 81.84 C34.53 76.05 34.53 70.26 34.51 64.46 C34.5 62.37 34.51 60.28 34.52 58.19 C34.6 40.13 31.96 27.25 19.12 13.75 C13.49 8.35 7.07 4.26 0 1 C0 0.67 0 0.34 0 0 Z " fill="#F0F2F4" transform="translate(1089,320)"/>
<path d="M0 0 C4.4 0.67 8.66 1.61 12.98 2.71 C13.98 2.97 13.98 2.97 15.01 3.23 C17.22 3.8 19.42 4.37 21.62 4.94 C22.76 5.23 22.76 5.23 23.92 5.53 C35.4 8.5 46.85 11.53 58.28 14.67 C59.83 15.09 61.38 15.52 62.93 15.94 C67.65 17.22 72.33 18.57 77 20 C77.92 20.28 78.84 20.55 79.79 20.83 C86.51 23.26 89.12 27.81 92.5 33.88 C93.61 35.77 94.71 37.65 95.82 39.54 C96.36 40.47 96.89 41.4 97.44 42.35 C99.61 46.04 101.95 49.62 104.31 53.19 C108 58.77 108 58.77 108 61 C99.86 60.45 92.08 58.85 84.12 57.06 C74.7 54.96 65.3 53.08 55.74 51.67 C43.64 49.79 38.31 45.54 31 36 C29.8 34.61 28.6 33.24 27.38 31.88 C26.83 31.25 26.28 30.62 25.72 29.97 C21.09 24.66 16.37 19.44 11.54 14.32 C10.94 13.69 10.35 13.06 9.73 12.4 C8.55 11.15 7.36 9.89 6.17 8.65 C2 4.22 2 4.22 2 2 C1.34 2 0.68 2 0 2 C0 1.34 0 0.68 0 0 Z " fill="#112F58" transform="translate(729,459)"/>
<path d="M0 0 C0.66 0 1.32 0 2 0 C2 1.11 2 2.22 2 3.37 C1.95 52.35 1.9 101.33 1.87 150.3 C1.87 151.05 1.87 151.79 1.87 152.55 C1.86 168.67 1.85 184.78 1.85 200.9 C1.84 208.8 1.84 216.71 1.84 224.61 C1.83 225.4 1.83 226.18 1.83 226.99 C1.82 252.48 1.8 277.97 1.77 303.46 C1.74 329.66 1.72 355.86 1.72 382.05 C1.72 385.75 1.72 389.45 1.72 393.15 C1.72 393.88 1.71 394.61 1.71 395.36 C1.71 407.08 1.7 418.8 1.68 430.52 C1.66 442.31 1.66 454.09 1.66 465.88 C1.66 472.26 1.66 478.65 1.64 485.03 C1.63 490.88 1.63 496.72 1.64 502.57 C1.64 504.68 1.63 506.8 1.63 508.91 C1.61 511.79 1.62 514.66 1.63 517.54 C1.62 518.77 1.62 518.77 1.61 520.02 C1.68 528.33 3.98 535.93 8.12 543.12 C8.64 544.06 9.16 544.99 9.7 545.95 C16.04 554.35 24.54 559.42 33.56 564.56 C35.98 565.97 38.4 567.38 40.82 568.79 C41.43 569.14 42.03 569.5 42.66 569.86 C48.5 573.27 54.22 576.83 59.94 580.44 C73.19 588.79 86.59 596.9 100 605 C100.75 605.45 101.49 605.9 102.26 606.36 C106.5 608.93 110.75 611.47 115 614 C116.4 614.83 116.4 614.83 117.82 615.68 C130.31 623.12 142.83 630.51 155.44 637.75 C164.61 643.02 173.72 648.39 182.78 653.86 C199.03 663.66 215.4 673.24 231.77 682.82 C242.56 689.14 253.3 695.54 264 702 C263.67 702.99 263.34 703.98 263 705 C262.01 705 261.02 705 260 705 C260 704.34 260 703.68 260 703 C259.42 702.88 258.85 702.75 258.25 702.62 C255.98 701.99 254.07 701.11 252 700 C252 699.34 252 698.68 252 698 C250.68 698 249.36 698 248 698 C248 697.01 248 696.02 248 695 C247.01 695 246.02 695 245 695 C245 694.34 245 693.68 245 693 C243.35 693 241.7 693 240 693 C240 692.01 240 691.02 240 690 C239.34 690 238.68 690 238 690 C238 689.34 238 688.68 238 688 C236.35 688 234.7 688 233 688 C233 687.34 233 686.68 233 686 C231.35 685.67 229.7 685.34 228 685 C228 684.34 228 683.68 228 683 C226.35 683 224.7 683 223 683 C223 682.34 223 681.68 223 681 C222.22 680.69 221.43 680.38 220.62 680.06 C218 679 218 679 216 678 C216 677.34 216 676.68 216 676 C214.35 676 212.7 676 211 676 C211 675.01 211 674.02 211 673 C209.35 673 207.7 673 206 673 C206 672.34 206 671.68 206 671 C205.01 671 204.02 671 203 671 C203 670.01 203 669.02 203 668 C201.98 667.88 201.98 667.88 200.94 667.75 C197.13 666.78 194.36 665.04 191 663 C191 662.34 191 661.68 191 661 C189.35 661 187.7 661 186 661 C186 660.34 186 659.68 186 659 C185.4 658.88 184.8 658.75 184.19 658.62 C182 658 182 658 179 656 C179 655.34 179 654.68 179 654 C177.35 654 175.7 654 174 654 C174 653.01 174 652.02 174 651 C172.35 651 170.7 651 169 651 C169 650.34 169 649.68 169 649 C168.22 648.69 167.43 648.38 166.62 648.06 C164 647 164 647 162 646 C162 645.34 162 644.68 162 644 C160.35 644 158.7 644 157 644 C157 643.01 157 642.02 157 641 C155.35 641 153.7 641 152 641 C152 640.34 152 639.68 152 639 C151.03 638.73 150.06 638.46 149.06 638.19 C147.55 637.6 147.55 637.6 146 637 C145.67 636.01 145.34 635.02 145 634 C143.35 634 141.7 634 140 634 C140 633.34 140 632.68 140 632 C138.35 631.67 136.7 631.34 135 631 C135 630.34 135 629.68 135 629 C134.01 629 133.02 629 132 629 C132 628.34 132 627.68 132 627 C130.68 627 129.36 627 128 627 C126.25 625.63 126.25 625.63 125 624 C125 623.34 125 622.68 125 622 C123.35 622 121.7 622 120 622 C120 621.01 120 620.02 120 619 C119.32 618.9 118.64 618.79 117.94 618.69 C114.37 617.85 111.34 616.51 108 615 C108 614.01 108 613.02 108 612 C106.35 612 104.7 612 103 612 C103 611.34 103 610.68 103 610 C100.67 608.79 98.5 607.83 96 607 C96 606.34 96 605.68 96 605 C94.35 605 92.7 605 91 605 C91 604.01 91 603.02 91 602 C90.42 601.86 89.84 601.71 89.25 601.56 C87.17 601.04 85.08 600.52 83 600 C83 599.01 83 598.02 83 597 C81.68 597 80.36 597 79 597 C79 596.34 79 595.68 79 595 C78.01 595 77.02 595 76 595 C76 594.34 76 593.68 76 593 C74.35 592.67 72.7 592.34 71 592 C71 591.34 71 590.68 71 590 C69.68 590 68.36 590 67 590 C67 589.34 67 588.68 67 588 C65.35 587.67 63.7 587.34 62 587 C62 586.34 62 585.68 62 585 C61.01 585 60.02 585 59 585 C59 584.34 59 583.68 59 583 C57.35 582.67 55.7 582.34 54 582 C54 581.34 54 580.68 54 580 C51.69 579.34 49.38 578.68 47 578 C47 577.01 47 576.02 47 575 C46.01 575 45.02 575 44 575 C44 574.34 44 573.68 44 573 C42.35 572.67 40.7 572.34 39 572 C39 571.34 39 570.68 39 570 C37.68 570 36.36 570 35 570 C35 569.34 35 568.68 35 568 C34.01 568 33.02 568 32 568 C32 567.34 32 566.68 32 566 C30.35 565.67 28.7 565.34 27 565 C27 564.34 27 563.68 27 563 C25.35 563 23.7 563 22 563 C22 562.34 22 561.68 22 561 C21.34 561 20.68 561 20 561 C20 560.01 20 559.02 20 558 C18.35 558 16.7 558 15 558 C15 557.34 15 556.68 15 556 C14.01 555.67 13.02 555.34 12 555 C12 554.34 12 553.68 12 553 C11.34 553 10.68 553 10 553 C10 551.35 10 549.7 10 548 C9.01 548 8.02 548 7 548 C7 547.34 7 546.68 7 546 C6.34 546 5.68 546 5 546 C5 544.35 5 542.7 5 541 C4.34 541 3.68 541 3 541 C0.4 534.98 -0.43 530.21 -0.37 523.69 C-0.37 522.78 -0.38 521.87 -0.38 520.94 C-0.39 517.89 -0.37 514.85 -0.36 511.8 C-0.36 509.6 -0.36 507.39 -0.37 505.19 C-0.38 499.13 -0.36 493.07 -0.35 487.01 C-0.34 481.15 -0.34 475.28 -0.34 469.42 C-0.35 457.43 -0.34 445.44 -0.32 433.44 C-0.3 421.57 -0.29 409.7 -0.28 397.83 C-0.28 397.09 -0.28 396.35 -0.28 395.59 C-0.28 391.84 -0.28 388.09 -0.28 384.34 C-0.27 357.79 -0.25 331.23 -0.23 304.67 C-0.2 278.88 -0.18 253.08 -0.16 227.28 C-0.16 226.49 -0.16 225.69 -0.16 224.87 C-0.16 216.89 -0.16 208.9 -0.15 200.91 C-0.14 184.64 -0.14 168.37 -0.13 152.1 C-0.13 151.36 -0.13 150.61 -0.13 149.84 C-0.1 99.89 -0.05 49.95 0 0 Z " fill="#D6DEE7" transform="translate(131,359)"/>
<path d="M0 0 C0.99 0.33 1.98 0.66 3 1 C2.67 1.33 2.34 1.66 2 2 C1.89 4.76 1.85 7.49 1.84 10.24 C1.84 11.12 1.83 11.99 1.83 12.9 C1.81 15.85 1.8 18.8 1.79 21.76 C1.79 23.87 1.78 25.98 1.76 28.08 C1.74 33.83 1.72 39.57 1.7 45.31 C1.67 51.31 1.65 57.3 1.62 63.3 C1.57 74.66 1.53 86.02 1.48 97.38 C1.43 110.31 1.38 123.25 1.32 136.18 C1.21 162.78 1.1 189.39 1 216 C0.01 216 -0.98 216 -2 216 C-2.05 188.13 -2.08 160.26 -2.1 132.4 C-2.11 119.46 -2.13 106.52 -2.15 93.58 C-2.17 82.31 -2.18 71.03 -2.19 59.76 C-2.19 53.79 -2.2 47.82 -2.21 41.84 C-2.22 36.23 -2.23 30.61 -2.23 25 C-2.23 22.93 -2.23 20.86 -2.24 18.8 C-2.25 15.99 -2.25 13.18 -2.24 10.36 C-2.25 9.54 -2.25 8.71 -2.26 7.86 C-2.23 2.23 -2.23 2.23 0 0 Z " fill="#334662" transform="translate(771,666)"/>
<path d="M0 0 C1.65 0 3.3 0 5 0 C5 0.66 5 1.32 5 2 C6.65 2 8.3 2 10 2 C10 2.99 10 3.98 10 5 C10.74 5.12 11.49 5.25 12.25 5.38 C14.8 5.95 16.73 6.74 19 8 C19 8.66 19 9.32 19 10 C19.58 10.14 20.15 10.29 20.75 10.44 C23.88 11.22 23.88 11.22 27 12 C27 12.66 27 13.32 27 14 C29.48 14.5 29.48 14.5 32 15 C32 15.66 32 16.32 32 17 C33.32 17 34.64 17 36 17 C36 17.66 36 18.32 36 19 C37.65 19.33 39.3 19.66 41 20 C41 20.66 41 21.32 41 22 C41.99 22 42.98 22 44 22 C44 22.66 44 23.32 44 24 C45.65 24 47.3 24 49 24 C49 24.99 49 25.98 49 27 C50.65 27 52.3 27 54 27 C54 27.66 54 28.32 54 29 C55.32 29.33 56.64 29.66 58 30 C58 30.66 58 31.32 58 32 C58.99 32 59.98 32 61 32 C61 32.66 61 33.32 61 34 C62.65 34 64.3 34 66 34 C66 34.66 66 35.32 66 36 C67.65 36.33 69.3 36.66 71 37 C71 37.66 71 38.32 71 39 C72.65 39 74.3 39 76 39 C76 39.66 76 40.32 76 41 C76.66 41 77.32 41 78 41 C77.67 41.99 77.34 42.98 77 44 C63.05 36.51 49.19 28.9 35.43 21.07 C30.41 18.22 25.36 15.42 20.31 12.62 C4.24 3.72 4.24 3.72 0 1 C0 0.67 0 0.34 0 0 Z " fill="#E3E8EF" transform="translate(780,146)"/>
<path d="M0 0 C25.41 0 50.82 0 77 0 C76.67 0.66 76.34 1.32 76 2 C69.39 3.41 62.34 3.14 55.62 3.1 C54.68 3.1 53.74 3.09 52.77 3.09 C49.8 3.09 46.84 3.08 43.88 3.06 C41.85 3.06 39.82 3.05 37.8 3.05 C32.86 3.04 27.93 3.02 23 3 C23 2.67 23 2.34 23 2 C21.06 1.92 19.13 1.86 17.19 1.81 C16.11 1.78 15.03 1.74 13.92 1.71 C10.98 1.73 10.98 1.73 9.11 3.51 C8.75 4 8.38 4.49 8 5 C4.35 3.72 2.83 2.83 0 0 Z " fill="#0F315D" transform="translate(550,548)"/>
<path d="M0 0 C1.65 0 3.3 0 5 0 C5 0.66 5 1.32 5 2 C5.66 2.06 6.32 2.12 7 2.19 C10.54 3.15 13.02 4.79 16.04 6.84 C18.03 8.02 19.74 8.56 22 9 C22 9.99 22 10.98 22 12 C23.65 12 25.3 12 27 12 C27 12.66 27 13.32 27 14 C29.48 14.5 29.48 14.5 32 15 C32 15.66 32 16.32 32 17 C32.99 17 33.98 17 35 17 C35 17.66 35 18.32 35 19 C36.65 19.33 38.3 19.66 40 20 C40 20.66 40 21.32 40 22 C41.32 22 42.64 22 44 22 C44 22.66 44 23.32 44 24 C45.65 24 47.3 24 49 24 C49 24.66 49 25.32 49 26 C50.65 26.33 52.3 26.66 54 27 C54 27.66 54 28.32 54 29 C54.99 29 55.98 29 57 29 C57 29.66 57 30.32 57 31 C58.65 31.33 60.3 31.66 62 32 C62 32.66 62 33.32 62 34 C63.32 34 64.64 34 66 34 C66 34.66 66 35.32 66 36 C66.99 36 67.98 36 69 36 C69.33 36.99 69.66 37.98 70 39 C65.97 37.76 62.42 36.28 58.75 34.2 C57.76 33.64 56.77 33.08 55.75 32.51 C54.7 31.91 53.65 31.31 52.56 30.69 C51.46 30.07 50.36 29.44 49.23 28.8 C46.94 27.51 44.66 26.22 42.38 24.92 C39.19 23.11 36 21.3 32.8 19.5 C28.97 17.34 25.14 15.17 21.3 13 C14.21 8.99 7.11 4.99 0 1 C0 0.67 0 0.34 0 0 Z " fill="#E9EDF2" transform="translate(885,205)"/>
<path d="M0 0 C1.65 0 3.3 0 5 0 C5 0.66 5 1.32 5 2 C6.65 2.33 8.3 2.66 10 3 C10 3.66 10 4.32 10 5 C11.32 5 12.64 5 14 5 C14 5.66 14 6.32 14 7 C14.87 7.19 14.87 7.19 15.75 7.38 C18.02 8.01 19.93 8.89 22 10 C22 10.66 22 11.32 22 12 C23.65 12 25.3 12 27 12 C27 12.66 27 13.32 27 14 C29.48 14.5 29.48 14.5 32 15 C32 15.66 32 16.32 32 17 C33.32 17 34.64 17 36 17 C36 17.66 36 18.32 36 19 C36.99 19 37.98 19 39 19 C39 19.99 39 20.98 39 22 C34.96 20.75 31.41 19.27 27.73 17.17 C26.76 16.62 25.79 16.07 24.79 15.5 C23.78 14.92 22.78 14.34 21.75 13.75 C20.76 13.19 19.78 12.63 18.76 12.05 C13.91 9.28 9.08 6.48 4.27 3.64 C3.44 3.16 2.62 2.67 1.77 2.17 C1.19 1.79 0.6 1.4 0 1 C0 0.67 0 0.34 0 0 Z " fill="#DBE1EA" transform="translate(741,124)"/>
<path d="M0 0 C1.65 0 3.3 0 5 0 C5 0.66 5 1.32 5 2 C6.32 2 7.64 2 9 2 C9 2.99 9 3.98 9 5 C10.65 5 12.3 5 14 5 C14 5.66 14 6.32 14 7 C15.14 7.19 15.14 7.19 16.31 7.38 C19 8 19 8 22 10 C22 10.66 22 11.32 22 12 C23.65 12 25.3 12 27 12 C27 12.66 27 13.32 27 14 C28.32 14 29.64 14 31 14 C31.33 14.66 31.66 15.32 32 16 C34.31 17.05 36.64 18.06 39 19 C39 19.99 39 20.98 39 22 C34.96 20.75 31.41 19.27 27.73 17.17 C26.76 16.62 25.79 16.07 24.79 15.5 C23.78 14.92 22.78 14.34 21.75 13.75 C20.76 13.19 19.78 12.63 18.76 12.05 C13.91 9.28 9.08 6.48 4.27 3.64 C3.44 3.16 2.62 2.67 1.77 2.17 C1.19 1.79 0.6 1.4 0 1 C0 0.67 0 0.34 0 0 Z " fill="#DFE5ED" transform="translate(702,102)"/>
<path d="M0 0 C1.32 0 2.64 0 4 0 C4 0.66 4 1.32 4 2 C5.65 2 7.3 2 9 2 C9 2.99 9 3.98 9 5 C9.74 5.12 10.49 5.25 11.25 5.38 C13.8 5.95 15.73 6.74 18 8 C18 8.66 18 9.32 18 10 C19.65 10 21.3 10 23 10 C23 10.66 23 11.32 23 12 C23.99 12 24.98 12 26 12 C26 12.66 26 13.32 26 14 C28.48 14.5 28.48 14.5 31 15 C31 15.66 31 16.32 31 17 C31.74 17.12 32.49 17.25 33.25 17.38 C35.8 17.95 37.73 18.74 40 20 C40 20.66 40 21.32 40 22 C40.99 22 41.98 22 43 22 C43 22.66 43 23.32 43 24 C38.63 22.67 34.84 20.96 30.86 18.73 C30.29 18.42 29.73 18.1 29.14 17.78 C27.95 17.11 26.75 16.44 25.56 15.77 C23.77 14.76 21.98 13.76 20.18 12.76 C4.49 4 4.49 4 0 1 C0 0.67 0 0.34 0 0 Z " fill="#E8ECF2" transform="translate(955,244)"/>
<path d="M0 0 C3.02 0.59 6.02 1.23 9 2 C9 2.99 9 3.98 9 5 C9.76 5.14 10.53 5.29 11.31 5.44 C14 6 14 6 17 7 C17 7.66 17 8.32 17 9 C17.66 9 18.32 9 19 9 C19 9.99 19 10.98 19 12 C19.58 12.08 20.15 12.17 20.75 12.25 C23.65 13.22 25.04 14.69 27 17 C27 17.66 27 18.32 27 19 C27.66 19 28.32 19 29 19 C29 19.99 29 20.98 29 22 C29.66 22 30.32 22 31 22 C30.67 23.65 30.34 25.3 30 27 C29.48 26.34 28.97 25.68 28.44 25 C20.58 15.33 13.33 8.51 2.38 2.42 C1.59 1.95 0.81 1.48 0 1 C0 0.67 0 0.34 0 0 Z " fill="#E6E8EC" transform="translate(1089,320)"/>
<path d="M0 0 C0.66 0.33 1.32 0.66 2 1 C-4.56 8.99 -4.56 8.99 -8 11 C-8.99 11 -9.98 11 -11 11 C-11 11.66 -11 12.32 -11 13 C-11.89 12.98 -12.77 12.96 -13.69 12.94 C-16.62 12.99 -19.15 13.33 -22 14 C-17.73 10.36 -13.13 7.53 -8.31 4.69 C-7.54 4.22 -6.77 3.75 -5.97 3.27 C-5.24 2.84 -4.5 2.4 -3.74 1.95 C-3.07 1.55 -2.4 1.15 -1.71 0.74 C-1.14 0.5 -0.58 0.25 0 0 Z " fill="#EBEEF1" transform="translate(764,1117)"/>
<path d="M0 0 C1.65 0 3.3 0 5 0 C5 0.66 5 1.32 5 2 C6.65 2.33 8.3 2.66 10 3 C10 3.66 10 4.32 10 5 C10.68 5.08 11.36 5.17 12.06 5.25 C15.87 6.22 18.64 7.96 22 10 C22 10.66 22 11.32 22 12 C23.65 12 25.3 12 27 12 C27 12.99 27 13.98 27 15 C27.58 15.12 28.15 15.25 28.75 15.38 C31.02 16.01 32.93 16.89 35 18 C35 18.66 35 19.32 35 20 C29.11 17.79 23.73 14.65 18.25 11.61 C16.38 10.56 14.5 9.53 12.62 8.5 C11.42 7.83 10.22 7.17 9.02 6.5 C7.94 5.9 6.86 5.3 5.74 4.69 C3.44 3.27 1.77 2.01 0 0 Z " fill="#E1E6ED" transform="translate(1054,300)"/>
<path d="M0 0 C1.65 0 3.3 0 5 0 C5 0.66 5 1.32 5 2 C5.87 2.19 5.87 2.19 6.75 2.38 C9.02 3.01 10.93 3.89 13 5 C13 5.66 13 6.32 13 7 C14.32 7 15.64 7 17 7 C17 7.66 17 8.32 17 9 C18.65 9 20.3 9 22 9 C22 9.99 22 10.98 22 12 C23.65 12 25.3 12 27 12 C27 12.66 27 13.32 27 14 C27.99 14 28.98 14 30 14 C30 14.99 30 15.98 30 17 C23.9 15.36 18.74 12.2 13.31 9.06 C11.89 8.26 11.89 8.26 10.44 7.43 C2.77 3.03 2.77 3.03 0 0 Z " fill="#E2E8EE" transform="translate(672,85)"/>
<path d="M0 0 C1.98 0 3.96 0 6 0 C6 0.66 6 1.32 6 2 C7.98 2 9.96 2 12 2 C12.33 2.99 12.66 3.98 13 5 C14.65 5 16.3 5 18 5 C18 5.66 18 6.32 18 7 C20.48 7.5 20.48 7.5 23 8 C23 8.66 23 9.32 23 10 C23.66 10 24.32 10 25 10 C25 10.66 25 11.32 25 12 C26.65 12 28.3 12 30 12 C30 12.99 30 13.98 30 15 C24.14 13.31 19.31 10.44 14.1 7.37 C9.52 4.71 5 2.74 0 1 C0 0.67 0 0.34 0 0 Z " fill="#E5EAF0" transform="translate(642,70)"/>
<path d="M0 0 C1.65 0 3.3 0 5 0 C5 0.99 5 1.98 5 3 C3.02 3.33 1.04 3.66 -1 4 C-1 4.99 -1 5.98 -1 7 C-2.13 7.29 -3.27 7.58 -4.44 7.88 C-5.61 8.25 -6.79 8.62 -8 9 C-8.33 9.66 -8.66 10.32 -9 11 C-11.65 11.59 -14.29 11.74 -17 12 C-17 11.34 -17 10.68 -17 10 C-15.35 10 -13.7 10 -12 10 C-12 9.01 -12 8.02 -12 7 C-10.38 6.16 -8.75 5.33 -7.12 4.5 C-6.22 4.04 -5.32 3.57 -4.38 3.09 C-2 2 -2 2 0 2 C0 1.34 0 0.68 0 0 Z " fill="#6A86AA" transform="translate(540,109)"/>
<path d="M0 0 C2.77 -0.03 5.54 -0.05 8.31 -0.06 C9.1 -0.07 9.88 -0.08 10.69 -0.09 C11.45 -0.09 12.21 -0.09 12.99 -0.1 C13.68 -0.1 14.38 -0.11 15.1 -0.11 C17 0 17 0 20 1 C19.67 1.66 19.34 2.32 19 3 C14.38 3 9.76 3 5 3 C5 3.33 5 3.66 5 4 C3.95 4.09 3.95 4.09 2.88 4.18 C1.97 4.27 1.06 4.35 0.12 4.44 C-0.78 4.52 -1.68 4.6 -2.62 4.68 C-5.01 4.87 -5.01 4.87 -7 6 C-7.66 5.67 -8.32 5.34 -9 5 C-9 4.34 -9 3.68 -9 3 C-6.36 3 -3.72 3 -1 3 C-0.67 2.01 -0.34 1.02 0 0 Z " fill="#92A8C2" transform="translate(620,67)"/>
<path d="M0 0 C-2.46 2.63 -4.58 4.75 -8 6 C-8.66 5.67 -9.32 5.34 -10 5 C-10 4.34 -10 3.68 -10 3 C-10.6 3.1 -11.21 3.19 -11.83 3.29 C-13.03 3.46 -13.03 3.46 -14.25 3.62 C-15.04 3.74 -15.83 3.86 -16.64 3.98 C-19.32 4 -20.73 3.37 -23 2 C-15.73 -0.42 -7.6 -0.12 0 0 Z " fill="#1E4880" transform="translate(450,485)"/>
<path d="M0 0 C12.87 0 25.74 0 39 0 C39 0.33 39 0.66 39 1 C38.17 1.01 37.34 1.03 36.48 1.04 C33.39 1.11 30.29 1.18 27.2 1.26 C25.21 1.31 23.21 1.35 21.22 1.38 C19.96 1.42 18.71 1.45 17.42 1.49 C16.26 1.51 15.1 1.54 13.91 1.57 C10.79 2.03 9.85 2.52 8 5 C4.35 3.72 2.83 2.83 0 0 Z " fill="#27446D" transform="translate(550,548)"/>
<path d="M0 0 C0.33 0 0.66 0 1 0 C1.08 1.9 1.14 3.79 1.19 5.69 C1.22 6.74 1.26 7.8 1.29 8.89 C0.95 12.49 0.36 14.26 -2 17 C-5.19 17.81 -5.19 17.81 -8 18 C-7.59 17.2 -7.18 16.41 -6.76 15.59 C-6.22 14.53 -5.68 13.47 -5.12 12.38 C-4.59 11.33 -4.06 10.29 -3.51 9.21 C-2.09 6.18 -0.99 3.19 0 0 Z " fill="#E2E5E9" transform="translate(1122,888)"/>
<path d="M0 0 C0.66 0.33 1.32 0.66 2 1 C1.67 2.32 1.34 3.64 1 5 C-0.65 5 -2.3 5 -4 5 C-4 5.66 -4 6.32 -4 7 C-6.91 9.04 -8.4 10 -12 10 C-12 10.66 -12 11.32 -12 12 C-13.32 11.67 -14.64 11.34 -16 11 C-12.53 5.96 -9.9 4.19 -3.99 2.64 C-1.8 2.1 -1.8 2.1 0 0 Z " fill="#F8F8F9" transform="translate(794,1101)"/>
<path d="M0 0 C0.66 0 1.32 0 2 0 C2.15 0.59 2.29 1.19 2.45 1.8 C4.34 8.81 7.33 14.76 11 21 C9.68 21 8.36 21 7 21 C7 20.34 7 19.68 7 19 C6.34 19 5.68 19 5 19 C5 17.35 5 15.7 5 14 C4.34 14 3.68 14 3 14 C0.96 9.07 -0.41 5.42 0 0 Z " fill="#DADFE4" transform="translate(131,886)"/>
<path d="M0 0 C-0.66 0 -1.32 0 -2 0 C-2 1.32 -2 2.64 -2 4 C-2.99 4.66 -3.98 5.32 -5 6 C-5.76 5.79 -6.53 5.59 -7.31 5.38 C-11.21 4.83 -12.87 6.82 -16 9 C-16.99 8.67 -17.98 8.34 -19 8 C-16.59 6.46 -14.18 4.95 -11.75 3.44 C-11.07 3 -10.39 2.56 -9.68 2.11 C-9.02 1.7 -8.36 1.29 -7.67 0.87 C-7.06 0.49 -6.46 0.11 -5.83 -0.29 C-3.52 -1.19 -2.3 -0.8 0 0 Z " fill="#E7EAEE" transform="translate(804,1097)"/>
<path d="M0 0 C1.65 0 3.3 0 5 0 C5 0.66 5 1.32 5 2 C6.65 2 8.3 2 10 2 C10 2.99 10 3.98 10 5 C11.65 5 13.3 5 15 5 C15 5.66 15 6.32 15 7 C15.6 7.12 16.2 7.25 16.81 7.38 C19 8 19 8 22 10 C22 10.66 22 11.32 22 12 C16.74 10.49 12.33 8.1 7.62 5.38 C6.89 4.95 6.15 4.53 5.39 4.1 C3.59 3.07 1.8 2.04 0 1 C0 0.67 0 0.34 0 0 Z " fill="#ECEFF3" transform="translate(858,190)"/>
<path d="M0 0 C1.81 6.57 -0.84 12.18 -4 18 C-5.63 19.77 -5.63 19.77 -7 21 C-5.35 13.61 -3.38 6.79 0 0 Z " fill="#E0E4EA" transform="translate(315,758)"/>
<path d="M0 0 C-0.33 1.32 -0.66 2.64 -1 4 C-2.65 4 -4.3 4 -6 4 C-6 4.66 -6 5.32 -6 6 C-9.46 7.49 -9.46 7.49 -13 9 C-12.56 6.25 -12.56 6.25 -11 3 C-3.55 -1.77 -3.55 -1.77 0 0 Z " fill="#F4F5F7" transform="translate(1065,943)"/>
<path d="M0 0 C1.32 0.33 2.64 0.66 4 1 C3.67 1.99 3.34 2.98 3 4 C1.02 4.33 -0.96 4.66 -3 5 C-3.33 5.99 -3.66 6.98 -4 8 C-6.07 8.73 -6.07 8.73 -8.56 9.19 C-9.39 9.35 -10.22 9.5 -11.07 9.67 C-11.7 9.78 -12.34 9.89 -13 10 C-12 7 -12 7 -9 5 C-7.68 5 -6.36 5 -5 5 C-5 4.34 -5 3.68 -5 3 C-3.35 3 -1.7 3 0 3 C0 2.01 0 1.02 0 0 Z " fill="#7E97B6" transform="translate(462,153)"/>
<path d="M0 0 C4.29 0 8.58 0 13 0 C13 1.98 13 3.96 13 6 C11.58 5.55 10.17 5.09 8.75 4.62 C7.96 4.37 7.17 4.11 6.36 3.85 C4.13 3.05 2.09 2.1 0 1 C0 0.67 0 0.34 0 0 Z " fill="#E4E6EB" transform="translate(473,1040)"/>
<path d="M0 0 C3.72 0.51 6.73 1.12 10 3 C9.01 3.5 9.01 3.5 8 4 C8.33 4.6 8.66 5.2 9 5.81 C10 8 10 8 10 11 C8.85 10.07 7.7 9.13 6.56 8.19 C5.92 7.67 5.29 7.14 4.63 6.61 C3 5 3 5 2 2 C1.34 2 0.68 2 0 2 C0 1.34 0 0.68 0 0 Z " fill="#1A345E" transform="translate(729,459)"/>
<path d="M0 0 C1.32 0.33 2.64 0.66 4 1 C4 1.66 4 2.32 4 3 C2.54 3.67 1.08 4.34 -0.38 5 C-1.59 5.56 -1.59 5.56 -2.84 6.12 C-5 7 -5 7 -7 7 C-7 7.66 -7 8.32 -7 9 C-8.98 9.33 -10.96 9.66 -13 10 C-13 9.34 -13 8.68 -13 8 C-12.01 8 -11.02 8 -10 8 C-9.67 7.01 -9.34 6.02 -9 5 C-7.68 5 -6.36 5 -5 5 C-5 4.34 -5 3.68 -5 3 C-3.35 3 -1.7 3 0 3 C0 2.01 0 1.02 0 0 Z " fill="#93A9C3" transform="translate(604,72)"/>
<path d="M0 0 C2.31 0.66 4.62 1.32 7 2 C7 2.66 7 3.32 7 4 C8.32 4 9.64 4 11 4 C11 4.66 11 5.32 11 6 C11.99 6 12.98 6 14 6 C14 6.99 14 7.98 14 9 C9.16 7.58 5.22 5.73 1 3 C0.67 2.01 0.34 1.02 0 0 Z " fill="#E3E8EE" transform="translate(766,137)"/>
<path d="M0 0 C0.33 0.66 0.66 1.32 1 2 C1.66 2 2.32 2 3 2 C3 3.65 3 5.3 3 7 C3.66 7 4.32 7 5 7 C5.12 9.88 5.12 9.88 5 13 C4.34 13.66 3.68 14.32 3 15 C2.3 13.07 1.62 11.13 0.94 9.19 C0.55 8.11 0.17 7.03 -0.22 5.92 C-1 3 -1 3 0 0 Z " fill="#EBEDF0" transform="translate(1120,345)"/>
<path d="M0 0 C4.97 1.76 9.43 4.39 14 7 C13.67 7.66 13.34 8.32 13 9 C11.35 9 9.7 9 8 9 C8 8.01 8 7.02 8 6 C7.34 6 6.68 6 6 6 C6 5.34 6 4.68 6 4 C4.35 4 2.7 4 1 4 C0.67 2.68 0.34 1.36 0 0 Z " fill="#EBEDF1" transform="translate(363,1043)"/>
<path d="M0 0 C1.79 0.95 3.59 1.91 5.38 2.88 C6.37 3.41 7.37 3.94 8.4 4.49 C11 6 11 6 13 8 C8.37 8.32 5.72 7.84 2 5 C2 4.34 2 3.68 2 3 C1.01 3 0.02 3 -1 3 C-0.67 2.01 -0.34 1.02 0 0 Z " fill="#E9ECF0" transform="translate(291,1000)"/>
<path d="M0 0 C0.66 0 1.32 0 2 0 C2 1.32 2 2.64 2 4 C-5.29 7.43 -5.29 7.43 -10 7 C-10 6.34 -10 5.68 -10 5 C-8.35 5 -6.7 5 -5 5 C-4.67 4.01 -4.34 3.02 -4 2 C-2.68 2 -1.36 2 0 2 C0 1.34 0 0.68 0 0 Z " fill="#54759F" transform="translate(494,136)"/>
<path d="M0 0 C3.81 0.67 7.41 1.53 11 3 C11.33 3.99 11.66 4.98 12 6 C11.3 5.86 10.6 5.71 9.88 5.56 C6.92 4.99 3.97 4.48 1 4 C0.67 2.68 0.34 1.36 0 0 Z " fill="#EEEFF2" transform="translate(605,1185)"/>
<path d="M0 0 C0.66 0 1.32 0 2 0 C1 7.43 1 7.43 0 11 C-1.32 11 -2.64 11 -4 11 C-3.22 7.08 -1.61 3.64 0 0 Z " fill="#6E89AB" transform="translate(138,342)"/>
<path d="M0 0 C0.99 0 1.98 0 3 0 C3 0.66 3 1.32 3 2 C4.65 2 6.3 2 8 2 C8 2.99 8 3.98 8 5 C8.87 5.19 8.87 5.19 9.75 5.38 C12.02 6.01 13.93 6.89 16 8 C16 8.66 16 9.32 16 10 C12.21 8.57 8.73 6.84 5.19 4.88 C4.21 4.34 3.24 3.8 2.23 3.24 C1.49 2.83 0.76 2.42 0 2 C0 1.34 0 0.68 0 0 Z " fill="#D9E0EA" transform="translate(1073,310)"/>
<path d="M0 0 C2.31 1.98 4.62 3.96 7 6 C6.34 7.32 5.68 8.64 5 10 C5 9.34 5 8.68 5 8 C4.01 7.67 3.02 7.34 2 7 C2 6.34 2 5.68 2 5 C1.34 5 0.68 5 0 5 C0 3.35 0 1.7 0 0 Z " fill="#F9F9FA" transform="translate(141,907)"/>
<path d="M0 0 C1.65 0 3.3 0 5 0 C4.67 0.99 4.34 1.98 4 3 C1.5 4.17 1.5 4.17 -1.56 5.19 C-2.57 5.53 -3.59 5.88 -4.63 6.23 C-5.41 6.48 -6.19 6.74 -7 7 C-7.33 6.34 -7.66 5.68 -8 5 C-7.01 5 -6.02 5 -5 5 C-5 4.34 -5 3.68 -5 3 C-3.35 2.67 -1.7 2.34 0 2 C0 1.34 0 0.68 0 0 Z " fill="#95AAC3" transform="translate(200,300)"/>
<path d="M0 0 C1.65 0 3.3 0 5 0 C5 0.66 5 1.32 5 2 C6.65 2.33 8.3 2.66 10 3 C10 3.66 10 4.32 10 5 C10.66 5 11.32 5 12 5 C12 5.66 12 6.32 12 7 C7.69 5.43 3.94 3.32 0 1 C0 0.67 0 0.34 0 0 Z " fill="#E4E9EF" transform="translate(1025,283)"/>
<path d="M0 0 C0.33 0 0.66 0 1 0 C0.55 5.63 -0.68 8.61 -4 13 C-4.66 12.01 -5.32 11.02 -6 10 C-5.03 8.33 -4.05 6.66 -3.06 5 C-2.24 3.61 -2.24 3.61 -1.41 2.19 C-0.71 1.1 -0.71 1.1 0 0 Z " fill="#183358" transform="translate(575,896)"/>
<path d="M0 0 C0.99 0 1.98 0 3 0 C2.67 1.32 2.34 2.64 2 4 C0.02 4 -1.96 4 -4 4 C-4.33 5.32 -4.66 6.64 -5 8 C-5.99 7.67 -6.98 7.34 -8 7 C-8 6.34 -8 5.68 -8 5 C-7.01 5 -6.02 5 -5 5 C-5 4.34 -5 3.68 -5 3 C-3.68 3 -2.36 3 -1 3 C-0.67 2.01 -0.34 1.02 0 0 Z " fill="#829AB9" transform="translate(575,89)"/>
<path d="M0 0 C1.65 0 3.3 0 5 0 C5 0.66 5 1.32 5 2 C6.65 2.33 8.3 2.66 10 3 C10 3.66 10 4.32 10 5 C10.66 5 11.32 5 12 5 C11.67 5.66 11.34 6.32 11 7 C7.37 5.02 3.74 3.04 0 1 C0 0.67 0 0.34 0 0 Z " fill="#E8EBF1" transform="translate(1003,271)"/>
<path d="M0 0 C0.66 0.33 1.32 0.66 2 1 C-2 4.71 -4.37 6.6 -10 7 C-6.81 4.36 -3.69 1.9 0 0 Z " fill="#D7DBE2" transform="translate(752,1124)"/>
<path d="M0 0 C0.99 0 1.98 0 3 0 C2.53 4.06 2.12 7.47 0 11 C-0.66 11 -1.32 11 -2 11 C-1.34 7.37 -0.68 3.74 0 0 Z " fill="#223A5D" transform="translate(583,872)"/>
<path d="M0 0 C0 0.66 0 1.32 0 2 C-1.53 3.29 -1.53 3.29 -3.5 4.62 C-4.15 5.07 -4.8 5.52 -5.47 5.98 C-6.23 6.48 -6.23 6.48 -7 7 C-7 6.34 -7 5.68 -7 5 C-7.99 4.67 -8.98 4.34 -10 4 C-8.71 3.33 -7.42 2.66 -6.12 2 C-5.41 1.63 -4.69 1.26 -3.95 0.88 C-2 0 -2 0 0 0 Z " fill="#214B86" transform="translate(381,661)"/>
<path d="M0 0 C0.66 1.32 1.32 2.64 2 4 C1.34 4.66 0.68 5.32 0 6 C-0.65 8.57 -0.65 8.57 -1 11 C-1.99 11.33 -2.98 11.66 -4 12 C-2.67 8 -1.33 4 0 0 Z " fill="#D8DFE9" transform="translate(522,273)"/>
<path d="M0 0 C1.98 0 3.96 0 6 0 C6 0.66 6 1.32 6 2 C7.98 2 9.96 2 12 2 C12.33 3.32 12.66 4.64 13 6 C8.71 4.35 4.42 2.7 0 1 C0 0.67 0 0.34 0 0 Z " fill="#DDE3EB" transform="translate(642,70)"/>
<path d="M0 0 C0.66 0.66 1.32 1.32 2 2 C1.65 5.44 0.95 7.07 -1 10 C-1.66 9.67 -2.32 9.34 -3 9 C-2.01 6.03 -1.02 3.06 0 0 Z " fill="#243D60" transform="translate(320,886)"/>
<path d="M0 0 C1.65 0 3.3 0 5 0 C5 0.66 5 1.32 5 2 C6.65 2 8.3 2 10 2 C10.33 3.32 10.66 4.64 11 6 C7.21 4.55 3.61 2.85 0 1 C0 0.67 0 0.34 0 0 Z " fill="#DFE5EC" transform="translate(858,190)"/>
<path d="M0 0 C4.4 0.5 6.71 2.09 10 5 C7.69 5 5.38 5 3 5 C3 4.01 3 3.02 3 2 C2.01 1.67 1.02 1.34 0 1 C0 0.67 0 0.34 0 0 Z " fill="#E7EAEE" transform="translate(535,1145)"/>
<path d="M0 0 C0.66 0.99 1.32 1.98 2 3 C1.38 4.32 0.76 5.63 0.12 6.94 C-0.22 7.67 -0.57 8.4 -0.93 9.15 C-2 11 -2 11 -4 12 C-3.52 10.37 -3.04 8.75 -2.56 7.12 C-2.3 6.22 -2.03 5.32 -1.75 4.38 C-1 2 -1 2 0 0 Z " fill="#CAD5E3" transform="translate(300,652)"/>
<path d="M0 0 C1.65 0 3.3 0 5 0 C5 0.99 5 1.98 5 3 C1.7 3.66 -1.6 4.32 -5 5 C-4.01 4.01 -3.02 3.02 -2 2 C-1.34 2 -0.68 2 0 2 C0 1.34 0 0.68 0 0 Z " fill="#88A0BE" transform="translate(540,109)"/>
<path d="M0 0 C2.95 1.37 5.44 2.99 8 5 C6.35 5.33 4.7 5.66 3 6 C3 5.01 3 4.02 3 3 C1.68 3 0.36 3 -1 3 C-0.67 2.01 -0.34 1.02 0 0 Z " fill="#E8EBEE" transform="translate(148,914)"/>
<path d="M0 0 C6.57 4 6.57 4 8 8 C4.18 6.44 1.81 3.96 -1 1 C-0.67 0.67 -0.34 0.34 0 0 Z " fill="#183967" transform="translate(564,556)"/>
<path d="M0 0 C0.33 0.99 0.66 1.98 1 3 C-1.64 5.31 -4.28 7.62 -7 10 C-7.66 9.67 -8.32 9.34 -9 9 C-6.03 6.03 -3.06 3.06 0 0 Z " fill="#DEE6EF" transform="translate(371,548)"/>
<path d="M0 0 C0.99 0.33 1.98 0.66 3 1 C2.34 1 1.68 1 1 1 C0.67 2.32 0.34 3.64 0 5 C-2.64 5.33 -5.28 5.66 -8 6 C-6.25 4 -6.25 4 -4 2 C-2.68 2 -1.36 2 0 2 C0 1.34 0 0.68 0 0 Z " fill="#A1B4CA" transform="translate(418,178)"/>
<path d="M0 0 C0.99 0.33 1.98 0.66 3 1 C1.35 2.98 -0.3 4.96 -2 7 C-2.66 6.67 -3.32 6.34 -4 6 C-4 4 -4 4 -2 1.88 C-1.34 1.26 -0.68 0.64 0 0 Z " fill="#F5F6F8" transform="translate(561,911)"/>
<path d="M0 0 C-0.66 2.64 -1.32 5.28 -2 8 C-2.66 7.67 -3.32 7.34 -4 7 C-4.62 4.44 -4.62 4.44 -5 2 C-2 0 -2 0 0 0 Z " fill="#E8EBEF" transform="translate(313,906)"/>
<path d="M0 0 C0.33 0.99 0.66 1.98 1 3 C-3.75 7.88 -3.75 7.88 -6 9 C-4.47 5.56 -2.4 2.88 0 0 Z " fill="#E3E8F0" transform="translate(344,579)"/>
<path d="M0 0 C3.02 0.59 6.02 1.23 9 2 C9.33 3.32 9.66 4.64 10 6 C6.67 4.33 3.33 2.67 0 1 C0 0.67 0 0.34 0 0 Z " fill="#D5DBE3" transform="translate(1089,320)"/>
<path d="M0 0 C1.32 0.33 2.64 0.66 4 1 C2.03 3.52 1.03 3.99 -2.19 4.69 C-3.58 4.84 -3.58 4.84 -5 5 C-5 4.34 -5 3.68 -5 3 C-3.68 3 -2.36 3 -1 3 C-0.67 2.01 -0.34 1.02 0 0 Z " fill="#6785AA" transform="translate(210,295)"/>
<path d="M0 0 C0.99 0 1.98 0 3 0 C2.19 2.44 2.19 2.44 1 5 C0.01 5.33 -0.98 5.66 -2 6 C-2.66 5.34 -3.32 4.68 -4 4 C-2.68 3.67 -1.36 3.34 0 3 C0 2.01 0 1.02 0 0 Z " fill="#4D709B" transform="translate(227,285)"/>
<path d="M0 0 C2.97 0.5 2.97 0.5 6 1 C6 1.66 6 2.32 6 3 C6.99 3 7.98 3 9 3 C9.33 3.99 9.66 4.98 10 6 C6.41 4.67 3.2 3.11 0 1 C0 0.67 0 0.34 0 0 Z " fill="#DCE2EB" transform="translate(832,175)"/>
<path d="M0 0 C0.99 0.33 1.98 0.66 3 1 C3 1.99 3 2.98 3 4 C1.02 4.33 -0.96 4.66 -3 5 C-2.62 3.06 -2.62 3.06 -2 1 C-1.34 0.67 -0.68 0.34 0 0 Z " fill="#F9FAFB" transform="translate(642,1187)"/>
<path d="M0 0 C2.64 0.33 5.28 0.66 8 1 C6.51 2.49 6.51 2.49 5 4 C2.52 3.01 2.52 3.01 0 2 C0 1.34 0 0.68 0 0 Z " fill="#1B3A64" transform="translate(553,549)"/>
<path d="M0 0 C1.32 1.32 2.64 2.64 4 4 C0.99 4.93 0.13 5.04 -3 4 C-3 3.34 -3 2.68 -3 2 C-2.01 2 -1.02 2 0 2 C0 1.34 0 0.68 0 0 Z " fill="#264B7F" transform="translate(671,398)"/>
<path d="M0 0 C1.65 0 3.3 0 5 0 C5 0.66 5 1.32 5 2 C6.65 2.33 8.3 2.66 10 3 C10 3.66 10 4.32 10 5 C6.09 3.84 3.13 2.64 0 0 Z " fill="#E2E7EE" transform="translate(1015,278)"/>
<path d="M0 0 C3 1 3 1 4 3 C0.63 4.5 -1.2 5 -5 5 C-5 4.34 -5 3.68 -5 3 C-4.36 2.88 -3.72 2.75 -3.06 2.62 C-2.04 2.32 -2.04 2.32 -1 2 C-0.67 1.34 -0.34 0.68 0 0 Z " fill="#597BA4" transform="translate(472,148)"/>
<path d="M0 0 C1.62 2.57 2.04 3.68 1.62 6.75 C1.42 7.49 1.21 8.24 1 9 C0.34 8.67 -0.32 8.34 -1 8 C-0.67 5.36 -0.34 2.72 0 0 Z " fill="#DADEE4" transform="translate(304,791)"/>
<path d="M0 0 C0.33 0.66 0.66 1.32 1 2 C1.66 2 2.32 2 3 2 C3 3.65 3 5.3 3 7 C2.01 7.5 2.01 7.5 1 8 C0.34 5.69 -0.32 3.38 -1 1 C-0.67 0.67 -0.34 0.34 0 0 Z " fill="#F2F4F5" transform="translate(1120,345)"/>
<path d="M0 0 C1.98 0.66 3.96 1.32 6 2 C6 2.66 6 3.32 6 4 C6.99 4.33 7.98 4.66 9 5 C3.48 4.39 3.48 4.39 1.12 2.5 C0 1 0 1 0 0 Z " fill="#EAEDF2" transform="translate(793,152)"/>
<path d="M0 0 C0.99 0.33 1.98 0.66 3 1 C1 3 -1 5 -3 7 C-3.33 5.68 -3.66 4.36 -4 3 C-2.19 1.44 -2.19 1.44 0 0 Z " fill="#6D8AAF" transform="translate(502,131)"/>
<path d="M0 0 C0.66 0.66 1.32 1.32 2 2 C-1.13 3.86 -3.37 4.2 -7 4 C-7 3.34 -7 2.68 -7 2 C-4.69 1.34 -2.38 0.68 0 0 Z " fill="#4B6E9A" transform="translate(530,117)"/>
<path d="M0 0 C1.32 0.33 2.64 0.66 4 1 C4 1.66 4 2.32 4 3 C1.65 4.43 0.52 5.09 -2.25 4.62 C-2.83 4.42 -3.4 4.21 -4 4 C-2.68 3.67 -1.36 3.34 0 3 C0 2.01 0 1.02 0 0 Z " fill="#6080A6" transform="translate(604,72)"/>
<path d="M0 0 C3.36 0.6 5.38 1.85 8 4 C7.01 4.33 6.02 4.66 5 5 C5 4.34 5 3.68 5 3 C3.35 3 1.7 3 0 3 C0 2.01 0 1.02 0 0 Z " fill="#E6E9EE" transform="translate(413,1073)"/>
<path d="M0 0 C0.66 0.66 1.32 1.32 2 2 C1.62 4.62 1.62 4.62 1 7 C0.01 7 -0.98 7 -2 7 C-1.34 4.69 -0.68 2.38 0 0 Z " fill="#2F425E" transform="translate(756,936)"/>
<path d="M0 0 C0.66 0.33 1.32 0.66 2 1 C1.01 2.49 1.01 2.49 0 4 C-3.62 4.69 -3.62 4.69 -7 5 C-4.7 3.26 -2.4 1.6 0 0 Z " fill="#243A5D" transform="translate(549,925)"/>
<path d="M0 0 C0.81 1.69 0.81 1.69 1 4 C-1.44 6.75 -1.44 6.75 -4 9 C-2.94 5.6 -1.99 2.99 0 0 Z " fill="#C8D4E2" transform="translate(325,736)"/>
<path d="M0 0 C0.66 0.33 1.32 0.66 2 1 C1.05 2.01 0.09 3 -0.88 4 C-1.41 4.56 -1.94 5.11 -2.49 5.69 C-4 7 -4 7 -6 7 C-4.61 3.63 -3.02 2.01 0 0 Z " fill="#243450" transform="translate(779,658)"/>
<path d="M0 0 C0.66 0.33 1.32 0.66 2 1 C-3.14 6.57 -3.14 6.57 -7 7 C-4.67 4.67 -2.33 2.33 0 0 Z " fill="#1C304D" transform="translate(956,645)"/>
<path d="M0 0 C1.89 0.06 1.89 0.06 3.81 0.12 C2.25 1.69 2.25 1.69 -0.19 3.12 C-3.94 2.81 -3.94 2.81 -7.19 2.12 C-4.1 0.07 -3.48 -0.11 0 0 Z " fill="#406390" transform="translate(434.1875,485.875)"/>
<path d="M0 0 C2.97 0.5 2.97 0.5 6 1 C5.34 2.32 4.68 3.64 4 5 C3.34 4.67 2.68 4.34 2 4 C2 3.34 2 2.68 2 2 C1.34 2 0.68 2 0 2 C0 1.34 0 0.68 0 0 Z " fill="#374C73" transform="translate(729,459)"/>
<path d="M0 0 C2.31 0.33 4.62 0.66 7 1 C7.33 2.32 7.66 3.64 8 5 C4.62 3.81 2.35 2.72 0 0 Z " fill="#D9DFE8" transform="translate(800,157)"/>
</svg>
